<svg xmlns="http://www.w3.org/2000/svg" xmlns:xlink="http://www.w3.org/1999/xlink" width="305" height="503" version="1.1" viewBox="0 0 305 503"><title>logo-black-red</title><desc>Created with Sketch.</desc><defs><rect id="path-1" width="38" height="38" x="0" y="52.84"/><filter id="filter-2" width="136.8%" height="136.8%" x="-18.4%" y="-13.2%" filterUnits="objectBoundingBox"><feOffset dx="0" dy="2" in="SourceAlpha" result="shadowOffsetOuter1"/><feGaussianBlur in="shadowOffsetOuter1" result="shadowBlurOuter1" stdDeviation="2"/><feColorMatrix in="shadowBlurOuter1" type="matrix" values="0 0 0 0 0 0 0 0 0 0 0 0 0 0 0 0 0 0 0.5 0"/></filter><filter id="filter-3" width="131.6%" height="131.6%" x="-15.8%" y="-10.5%" filterUnits="objectBoundingBox"><feGaussianBlur in="SourceAlpha" result="shadowBlurInner1" stdDeviation="1.5"/><feOffset dx="0" dy="1" in="shadowBlurInner1" result="shadowOffsetInner1"/><feComposite in="shadowOffsetInner1" in2="SourceAlpha" k2="-1" k3="1" operator="arithmetic" result="shadowInnerInner1"/><feColorMatrix in="shadowInnerInner1" type="matrix" values="0 0 0 0 0 0 0 0 0 0 0 0 0 0 0 0 0 0 0.5 0"/></filter><rect id="path-4" width="38" height="38" x="0" y="0"/><filter id="filter-5" width="136.8%" height="136.8%" x="-18.4%" y="-13.2%" filterUnits="objectBoundingBox"><feOffset dx="0" dy="2" in="SourceAlpha" result="shadowOffsetOuter1"/><feGaussianBlur in="shadowOffsetOuter1" result="shadowBlurOuter1" stdDeviation="2"/><feColorMatrix in="shadowBlurOuter1" type="matrix" values="0 0 0 0 0 0 0 0 0 0 0 0 0 0 0 0 0 0 0.5 0"/></filter><filter id="filter-6" width="131.6%" height="131.6%" x="-15.8%" y="-10.5%" filterUnits="objectBoundingBox"><feGaussianBlur in="SourceAlpha" result="shadowBlurInner1" stdDeviation="1.5"/><feOffset dx="0" dy="1" in="shadowBlurInner1" result="shadowOffsetInner1"/><feComposite in="shadowOffsetInner1" in2="SourceAlpha" k2="-1" k3="1" operator="arithmetic" result="shadowInnerInner1"/><feColorMatrix in="shadowInnerInner1" type="matrix" values="0 0 0 0 0 0 0 0 0 0 0 0 0 0 0 0 0 0 0.5 0"/></filter><rect id="path-7" width="38" height="38" x="53" y="52.84"/><filter id="filter-8" width="136.8%" height="136.8%" x="-18.4%" y="-13.2%" filterUnits="objectBoundingBox"><feOffset dx="0" dy="2" in="SourceAlpha" result="shadowOffsetOuter1"/><feGaussianBlur in="shadowOffsetOuter1" result="shadowBlurOuter1" stdDeviation="2"/><feColorMatrix in="shadowBlurOuter1" type="matrix" values="0 0 0 0 0 0 0 0 0 0 0 0 0 0 0 0 0 0 0.5 0"/></filter><filter id="filter-9" width="131.6%" height="131.6%" x="-15.8%" y="-10.5%" filterUnits="objectBoundingBox"><feGaussianBlur in="SourceAlpha" result="shadowBlurInner1" stdDeviation="1.5"/><feOffset dx="0" dy="1" in="shadowBlurInner1" result="shadowOffsetInner1"/><feComposite in="shadowOffsetInner1" in2="SourceAlpha" k2="-1" k3="1" operator="arithmetic" result="shadowInnerInner1"/><feColorMatrix in="shadowInnerInner1" type="matrix" values="0 0 0 0 0 0 0 0 0 0 0 0 0 0 0 0 0 0 0.5 0"/></filter><rect id="path-10" width="38" height="38" x="53" y="0"/><filter id="filter-11" width="136.8%" height="136.8%" x="-18.4%" y="-13.2%" filterUnits="objectBoundingBox"><feOffset dx="0" dy="2" in="SourceAlpha" result="shadowOffsetOuter1"/><feGaussianBlur in="shadowOffsetOuter1" result="shadowBlurOuter1" stdDeviation="2"/><feColorMatrix in="shadowBlurOuter1" type="matrix" values="0 0 0 0 0 0 0 0 0 0 0 0 0 0 0 0 0 0 0.5 0"/></filter><filter id="filter-12" width="131.6%" height="131.6%" x="-15.8%" y="-10.5%" filterUnits="objectBoundingBox"><feGaussianBlur in="SourceAlpha" result="shadowBlurInner1" stdDeviation="1.5"/><feOffset dx="0" dy="1" in="shadowBlurInner1" result="shadowOffsetInner1"/><feComposite in="shadowOffsetInner1" in2="SourceAlpha" k2="-1" k3="1" operator="arithmetic" result="shadowInnerInner1"/><feColorMatrix in="shadowInnerInner1" type="matrix" values="0 0 0 0 0 0 0 0 0 0 0 0 0 0 0 0 0 0 0.5 0"/></filter><path id="path-13" d="M0.49,0.58 L26.86,0.58 C31.9167001,0.44702205 36.9469613,1.35233293 41.64,3.24 C45.4567671,4.82986754 48.8724577,7.24817648 51.64,10.32 C54.2292688,13.2593999 56.1349561,16.7360839 57.22,20.5 C58.3468856,24.3828613 58.912614,28.4069413 58.9,32.45 L58.9,37 C58.9481702,39.9104463 58.679929,42.8175098 58.1,45.67 C57.6391984,47.8477826 56.8322965,49.937625 55.71,51.86 C54.6623059,53.6141267 53.3501995,55.1960751 51.82,56.55 C50.1769135,57.9881481 48.3986421,59.2640829 46.51,60.36 C50.5643223,62.183657 53.8738089,65.3379011 55.89,69.3 C57.89,73.2533333 58.89,78.5333333 58.89,85.14 L58.89,92.22 C58.89,103.313333 56.2066667,111.81 50.84,117.71 C45.4733333,123.61 36.89,126.56 25.09,126.56 L0.49,126.56 L0.49,0.58 Z M18.54,52.26 L26.68,52.26 C32.68,52.26 36.72,50.7566667 38.8,47.75 C40.88,44.7433333 41.9133333,40.3466667 41.9,34.56 C41.9,28.8933333 40.75,24.6466667 38.45,21.82 C36.15,18.9933333 31.99,17.5766667 25.97,17.57 L18.54,17.57 L18.54,52.26 Z M18.54,108.55 L26.33,108.55 C29.2746228,108.692824 32.2120853,108.148469 34.91,106.96 C36.8795442,105.987932 38.5129953,104.448518 39.6,102.54 C40.7197316,100.460264 41.3844304,98.1662016 41.55,95.81 C41.7833333,93.2166667 41.9,90.3833333 41.9,87.31 C41.9271596,84.527434 41.7500169,81.7466281 41.37,78.99 C41.1062251,76.8679464 40.3493676,74.8371025 39.16,73.06 C37.9804483,71.4220614 36.3513729,70.1611778 34.47,69.43 C31.9070018,68.5095265 29.1913876,68.0886064 26.47,68.19 L18.47,68.19 L18.54,108.55 Z"/><filter id="filter-14" width="124%" height="111.1%" x="-12%" y="-4%" filterUnits="objectBoundingBox"><feOffset dx="0" dy="2" in="SourceAlpha" result="shadowOffsetOuter1"/><feGaussianBlur in="shadowOffsetOuter1" result="shadowBlurOuter1" stdDeviation="2"/><feColorMatrix in="shadowBlurOuter1" type="matrix" values="0 0 0 0 0 0 0 0 0 0 0 0 0 0 0 0 0 0 0.5 0"/></filter><path id="path-15" d="M90.23,0.58 L105.23,0.58 L133.37,126.58 L115.37,126.58 L110.06,99.5 L85.49,99.5 L80.18,126.58 L62.09,126.58 L90.23,0.58 Z M97.84,36.87 L97.49,36.87 L88.64,82.54 L106.69,82.54 L97.84,36.87 Z"/><filter id="filter-16" width="119.6%" height="111.1%" x="-9.8%" y="-4%" filterUnits="objectBoundingBox"><feOffset dx="0" dy="2" in="SourceAlpha" result="shadowOffsetOuter1"/><feGaussianBlur in="shadowOffsetOuter1" result="shadowBlurOuter1" stdDeviation="2"/><feColorMatrix in="shadowBlurOuter1" type="matrix" values="0 0 0 0 0 0 0 0 0 0 0 0 0 0 0 0 0 0 0.5 0"/></filter><polygon id="path-17" points="142.27 .58 159.62 .58 182.81 67.31 183.16 67.31 206.16 .58 223.69 .58 223.69 126.58 205.64 126.58 205.64 50 205.29 50 187.41 104.16 178.41 104.16 160.68 50 160.33 50 160.33 126.6 142.27 126.6"/><filter id="filter-18" width="117.2%" height="111.1%" x="-8.6%" y="-4%" filterUnits="objectBoundingBox"><feOffset dx="0" dy="2" in="SourceAlpha" result="shadowOffsetOuter1"/><feGaussianBlur in="shadowOffsetOuter1" result="shadowBlurOuter1" stdDeviation="2"/><feColorMatrix in="shadowBlurOuter1" type="matrix" values="0 0 0 0 0 0 0 0 0 0 0 0 0 0 0 0 0 0 0.5 0"/></filter><polygon id="path-19" points="240.68 .58 294.49 .58 294.49 17.58 258.74 17.58 258.74 55.8 289.89 55.8 289.89 72.8 258.74 72.8 258.74 126.6 240.68 126.6"/><filter id="filter-20" width="126%" height="111.1%" x="-13%" y="-4%" filterUnits="objectBoundingBox"><feOffset dx="0" dy="2" in="SourceAlpha" result="shadowOffsetOuter1"/><feGaussianBlur in="shadowOffsetOuter1" result="shadowBlurOuter1" stdDeviation="2"/><feColorMatrix in="shadowBlurOuter1" type="matrix" values="0 0 0 0 0 0 0 0 0 0 0 0 0 0 0 0 0 0 0.5 0"/></filter></defs><g id="Page-1" fill="none" fill-rule="evenodd" stroke="none" stroke-width="1"><g id="logo-black-red" fill-rule="nonzero"><polygon id="background" fill="#000" points="0 0 144.79 144.79 144.79 92 137.05 92 137.05 78 216.52 78 216.52 92 208.79 92 208.79 208.79 304.84 304.84 304.84 0"/><g id="Windows" transform="translate(10.000000, 204.000000)"><g id="Rectangle-path"><use fill="#000" fill-opacity="1" filter="url(#filter-2)" xlink:href="#path-1"/><use fill="red" fill-rule="evenodd" xlink:href="#path-1"/><use fill="#000" fill-opacity="1" filter="url(#filter-3)" xlink:href="#path-1"/></g><g id="Rectangle-path"><use fill="#000" fill-opacity="1" filter="url(#filter-5)" xlink:href="#path-4"/><use fill="red" fill-rule="evenodd" xlink:href="#path-4"/><use fill="#000" fill-opacity="1" filter="url(#filter-6)" xlink:href="#path-4"/></g><g id="Rectangle-path"><use fill="#000" fill-opacity="1" filter="url(#filter-8)" xlink:href="#path-7"/><use fill="red" fill-rule="evenodd" xlink:href="#path-7"/><use fill="#000" fill-opacity="1" filter="url(#filter-9)" xlink:href="#path-7"/></g><g id="Rectangle-path"><use fill="#000" fill-opacity="1" filter="url(#filter-11)" xlink:href="#path-10"/><use fill="red" fill-rule="evenodd" xlink:href="#path-10"/><use fill="#000" fill-opacity="1" filter="url(#filter-12)" xlink:href="#path-10"/></g></g><g id="BAMF" transform="translate(5.000000, 341.000000)"><g id="Shape"><use fill="#000" fill-opacity="1" filter="url(#filter-14)" xlink:href="#path-13"/><use fill="#000" fill-rule="evenodd" xlink:href="#path-13"/></g><g id="Shape"><use fill="#000" fill-opacity="1" filter="url(#filter-16)" xlink:href="#path-15"/><use fill="#000" fill-rule="evenodd" xlink:href="#path-15"/></g><g id="Shape"><use fill="#000" fill-opacity="1" filter="url(#filter-18)" xlink:href="#path-17"/><use fill="#000" fill-rule="evenodd" xlink:href="#path-17"/></g><g id="Shape"><use fill="#000" fill-opacity="1" filter="url(#filter-20)" xlink:href="#path-19"/><use fill="#000" fill-rule="evenodd" xlink:href="#path-19"/></g></g><g id="General-Contracting" fill="red" transform="translate(4.000000, 481.000000)"><path id="Shape" d="M7.77,9.73 L14.77,9.73 L14.77,13.87 C14.7937659,15.7716766 14.0764724,17.6079478 12.77,18.99 C11.4642186,20.3507134 9.65584578,21.1138468 7.77,21.1 C5.1993163,21.0887657 2.8355017,19.6888367 1.59,17.44 C1.44333333,17.1333333 1.31333333,16.84 1.2,16.56 C1.07531475,16.2061476 0.984899725,15.8411388 0.93,15.47 C0.659756298,12.3191173 0.659756298,9.15088274 0.93,6 C1.03206575,5.3190315 1.25561504,4.66193206 1.59,4.06 C2.13637881,3.04534905 2.92682775,2.18272868 3.89,1.55 C6.5484579,-0.176636368 10.0294264,0.0682148734 12.42,2.15 C13.6159086,3.30049599 14.4115042,4.80406646 14.69,6.44 L11.49,6.44 C11.2533359,5.62584755 10.7924538,4.89467368 10.16,4.33 C9.47145214,3.76825787 8.60860454,3.46413945 7.72,3.47 C7.09125677,3.46908799 6.47115326,3.6164054 5.91,3.9 C5.4272192,4.14105277 5.00114971,4.48190837 4.66,4.9 C4.25236637,5.38152763 3.98587341,5.96642777 3.89,6.59 C3.70499975,7.94838218 3.63142108,9.31962089 3.67,10.69 C3.63052928,12.0504177 3.70411554,13.4117636 3.89,14.76 C3.98207326,15.3936812 4.24868708,15.9892342 4.66,16.48 C4.99433656,16.9049102 5.42206256,17.2470909 5.91,17.48 C6.46208715,17.7995938 7.09236106,17.9588938 7.73,17.94 C8.826645,17.9712554 9.88224359,17.5219868 10.62,16.71 C11.4027512,15.870897 11.8231433,14.7570374 11.79,13.61 L11.79,12.54 L7.79,12.54 L7.77,9.73 Z"/><polygon id="Shape" points="18.82 .56 31.42 .56 31.42 3.46 21.81 3.46 21.81 9.29 30.02 9.29 30.02 12 21.81 12 21.81 18 31.42 18 31.42 20.9 18.82 20.9"/><polygon id="Shape" points="34.72 .56 37.49 .56 46.49 15 46.49 15 46.49 .56 49.49 .56 49.49 20.92 46.66 20.92 37.74 6.45 37.69 6.45 37.69 20.92 34.69 20.92"/><polygon id="Shape" points="54.29 .56 66.89 .56 66.89 3.46 57.28 3.46 57.28 9.29 65.49 9.29 65.49 12 57.28 12 57.28 18 66.89 18 66.89 20.9 54.29 20.9"/><path id="Shape" d="M70.19,0.56 L77.9,0.56 C79.3515767,0.50776997 80.7728185,0.98388597 81.9,1.9 C83.1943341,2.96542642 83.9309351,4.56385044 83.9,6.24 C84.0284897,8.75890592 82.4747789,11.0588872 80.09,11.88 L84.65,20.88 L81.1,20.88 L77.02,12.18 L73.2,12.18 L73.2,20.88 L70.2,20.88 L70.19,0.56 Z M73.19,9.48 L77.72,9.48 C78.6079968,9.54014433 79.479801,9.22061575 80.1186104,8.60087529 C80.7574198,7.98113483 81.1032139,7.11941133 81.07,6.23 C81.1293161,5.34368357 80.7568551,4.48329859 80.07,3.92 C79.4329738,3.45904694 78.6544589,3.2361086 77.87,3.29 L73.18,3.29 L73.19,9.48 Z"/><path id="Shape" d="M97.74,16.37 L90.26,16.37 L88.75,20.92 L85.58,20.92 L92.75,0.56 L95.25,0.56 L102.42,20.92 L99.27,20.92 L97.74,16.37 Z M96.89,13.64 L94.04,4.73 L93.99,4.73 L91.14,13.64 L96.89,13.64 Z"/><polygon id="Shape" points="105.08 .56 108.08 .56 108.08 18 117.69 18 117.69 20.9 105.09 20.9"/><path id="Shape" d="M141.14,15.24 C140.821782,16.9260699 139.948815,18.4572818 138.66,19.59 C137.39862,20.597743 135.824188,21.1319886 134.21,21.1 C131.63873,21.0908901 129.273921,19.6903721 128.03,17.44 C127.883333,17.1333333 127.753333,16.84 127.64,16.56 C127.515315,16.2061476 127.4249,15.8411388 127.37,15.47 C127.099413,12.319132 127.099413,9.15086805 127.37,6 C127.471641,5.31892839 127.695216,4.6617548 128.03,4.06 C128.576379,3.04534905 129.366828,2.18272868 130.33,1.55 C132.99157,-0.178278424 136.476233,0.0665456846 138.87,2.15 C140.065174,3.29699588 140.860832,4.79717883 141.14,6.43 L137.97,6.43 C137.73263,5.61900994 137.27171,4.89124136 136.64,4.33 C135.949677,3.7725903 135.087237,3.47215026 134.2,3.48 C133.567879,3.47751115 132.944168,3.62487153 132.38,3.91 C131.897054,4.15079421 131.470934,4.49169036 131.13,4.91 C130.722366,5.39152763 130.455873,5.97642777 130.36,6.6 C130.175,7.95838218 130.101421,9.32962089 130.14,10.7 C130.100206,12.0604218 130.173793,13.4217945 130.36,14.77 C130.452073,15.4036812 130.718687,15.9992342 131.13,16.49 C131.464337,16.9149102 131.892063,17.2570909 132.38,17.49 C132.932087,17.8095938 133.562361,17.9688938 134.2,17.95 C135.88,17.95 137.136667,17.02 137.97,15.16 L141.14,15.24 Z"/><path id="Shape" d="M143.07,10.74 C143.029245,9.15063863 143.096064,7.56034076 143.27,5.98 C143.371328,5.29569146 143.594885,4.63518062 143.93,4.03 C144.477037,3.01850802 145.267521,2.15928596 146.23,1.53 C147.373342,0.755819105 148.729594,0.357332527 150.11,0.39 C152.697147,0.330487788 155.091887,1.75103057 156.28,4.05 C156.648494,4.63872112 156.88398,5.30081139 156.97,5.99 C157.204452,9.14231335 157.204452,12.3076866 156.97,15.46 C156.891284,16.1696141 156.655583,16.8528052 156.28,17.46 C155.761364,18.4698387 154.989541,19.3278024 154.04,19.95 C152.882188,20.7284398 151.515072,21.1364822 150.12,21.12 C147.549316,21.1087657 145.185502,19.7088367 143.94,17.46 C143.793333,17.1533333 143.663333,16.86 143.55,16.58 C143.425315,16.2261476 143.3349,15.8611388 143.28,15.49 C143.102932,13.9132165 143.032772,12.3262577 143.07,10.74 Z M146.07,10.74 C146.030529,12.1004177 146.104116,13.4617636 146.29,14.81 C146.382073,15.4436812 146.648687,16.0392342 147.06,16.53 C147.394337,16.9549102 147.822063,17.2970909 148.31,17.53 C148.862087,17.8495938 149.492361,18.0088938 150.13,17.99 C150.78017,18.0075034 151.422937,17.8485395 151.99,17.53 C152.459999,17.2952084 152.867774,16.9525406 153.18,16.53 C153.593999,16.03745 153.870039,15.4439629 153.98,14.81 C154.152106,13.4605722 154.218975,12.0998003 154.18,10.74 C154.218132,9.37023127 154.151269,7.99955405 153.98,6.64 C153.71919,5.49017896 152.995609,4.49887275 151.98,3.9 C151.400631,3.61747063 150.764586,3.47042806 150.12,3.47 C149.487879,3.46751115 148.864168,3.61487153 148.3,3.9 C147.817219,4.14105277 147.39115,4.48190837 147.05,4.9 C146.642809,5.38180796 146.376375,5.96657766 146.28,6.59 C146.09235,7.96489959 146.018766,9.35296678 146.06,10.74 L146.07,10.74 Z"/><polygon id="Shape" points="161.19 .56 164 .56 172.93 15 172.98 15 172.98 .56 175.98 .56 175.98 20.92 173.15 20.92 164.23 6.45 164.18 6.45 164.18 20.92 161.18 20.92"/><polygon id="Shape" points="184.1 3.3 178.69 3.3 178.69 .56 192.49 .56 192.49 3.3 187.09 3.3 187.09 20.93 184.09 20.93"/><path id="Shape" d="M195.05,0.56 L202.76,0.56 C204.211577,0.50776997 205.632819,0.98388597 206.76,1.9 C208.054334,2.96542642 208.790935,4.56385044 208.76,6.24 C208.88849,8.75890592 207.334779,11.0588872 204.95,11.88 L209.51,20.88 L205.96,20.88 L201.88,12.18 L198.06,12.18 L198.06,20.88 L195.06,20.88 L195.05,0.56 Z M198.05,9.48 L202.58,9.48 C203.467997,9.54014433 204.339801,9.22061575 204.97861,8.60087529 C205.61742,7.98113483 205.963214,7.11941133 205.93,6.23 C205.989316,5.34368357 205.616855,4.48329859 204.93,3.92 C204.292974,3.45904694 203.514459,3.2361086 202.73,3.29 L198.04,3.29 L198.05,9.48 Z"/><path id="Shape" d="M222.6,16.37 L215.12,16.37 L213.61,20.92 L210.49,20.92 L217.66,0.56 L220.16,0.56 L227.33,20.92 L224.18,20.92 L222.6,16.37 Z M221.75,13.64 L218.9,4.73 L218.85,4.73 L216,13.64 L221.75,13.64 Z"/><path id="Shape" d="M242.72,15.24 C242.401782,16.9260699 241.528815,18.4572818 240.24,19.59 C238.97862,20.597743 237.404188,21.1319886 235.79,21.1 C233.21873,21.0908901 230.853921,19.6903721 229.61,17.44 C229.463333,17.1333333 229.333333,16.84 229.22,16.56 C229.095315,16.2061476 229.0049,15.8411388 228.95,15.47 C228.679413,12.319132 228.679413,9.15086805 228.95,6 C229.051641,5.31892839 229.275216,4.6617548 229.61,4.06 C230.156379,3.04534905 230.946828,2.18272868 231.91,1.55 C234.57157,-0.178278424 238.056233,0.0665456846 240.45,2.15 C241.645174,3.29699588 242.440832,4.79717883 242.72,6.43 L239.55,6.43 C239.31263,5.61900994 238.85171,4.89124136 238.22,4.33 C237.529677,3.7725903 236.667237,3.47215026 235.78,3.48 C235.147879,3.47751115 234.524168,3.62487153 233.96,3.91 C233.477054,4.15079421 233.050934,4.49169036 232.71,4.91 C232.302366,5.39152763 232.035873,5.97642777 231.94,6.6 C231.755,7.95838218 231.681421,9.32962089 231.72,10.7 C231.680206,12.0604218 231.753793,13.4217945 231.94,14.77 C232.032073,15.4036812 232.298687,15.9992342 232.71,16.49 C233.044337,16.9149102 233.472063,17.2570909 233.96,17.49 C234.512087,17.8095938 235.142361,17.9688938 235.78,17.95 C237.46,17.95 238.716667,17.02 239.55,15.16 L242.72,15.24 Z"/><polygon id="Shape" points="248.68 3.3 243.27 3.3 243.27 .56 257.07 .56 257.07 3.3 251.66 3.3 251.66 20.93 248.66 20.93"/><polygon id="Shape" points="259.63 .56 262.63 .56 262.63 20.92 259.63 20.92"/><polygon id="Shape" points="267 .56 269.81 .56 278.74 15 278.79 15 278.79 .56 281.79 .56 281.79 20.92 278.96 20.92 270.04 6.45 269.99 6.45 269.99 20.92 266.99 20.92"/><path id="Shape" d="M292.96,9.73 L299.96,9.73 L299.96,13.87 C299.983766,15.7716766 299.266472,17.6079478 297.96,18.99 C296.653535,20.3497191 294.845611,21.1126631 292.96,21.1 C290.38873,21.0908901 288.023921,19.6903721 286.78,17.44 C286.633333,17.1333333 286.503333,16.84 286.39,16.56 C286.265374,16.2061299 286.17496,15.8411268 286.12,15.47 C285.850391,12.3190901 285.850391,9.15090989 286.12,6 C286.221854,5.31898002 286.445416,4.66184361 286.78,4.06 C287.326379,3.04534905 288.116828,2.18272868 289.08,1.55 C291.738458,-0.176636368 295.219426,0.0682148734 297.61,2.15 C298.805909,3.30049599 299.601504,4.80406646 299.88,6.44 L296.69,6.44 C296.452841,5.62607014 295.99204,4.89502398 295.36,4.33 C294.671452,3.76825787 293.808605,3.46413945 292.92,3.47 C292.291257,3.46908799 291.671153,3.6164054 291.11,3.9 C290.627219,4.14105277 290.20115,4.48190837 289.86,4.9 C289.452809,5.38180796 289.186375,5.96657766 289.09,6.59 C288.905,7.94838218 288.831421,9.31962089 288.87,10.69 C288.830529,12.0504177 288.904116,13.4117636 289.09,14.76 C289.182073,15.3936812 289.448687,15.9892342 289.86,16.48 C290.194337,16.9049102 290.622063,17.2470909 291.11,17.48 C291.662087,17.7995938 292.292361,17.9588938 292.93,17.94 C294.026645,17.9712554 295.082244,17.5219868 295.82,16.71 C296.602751,15.870897 297.023143,14.7570374 296.99,13.61 L296.99,12.54 L292.99,12.54 L292.96,9.73 Z"/></g></g></g></svg>