<svg version="1" xmlns="http://www.w3.org/2000/svg" width="1341.333" height="1341.333" viewBox="0 0 1006.000000 1006.000000"><path d="M199 .5c0 1.4 287.9 288.2 288.2 287.2.3-.7.4-24.2.4-52.2l-.1-51-7.6-.5-7.6-.5-.1-13.7-.1-13.7H631v27.8l-7.7.3-7.8.3v233l95.8 95.7c52.6 52.7 95.9 95.8 96 95.8.2 0 .4-137 .4-304.5V0H503.3C335.9 0 199 .2 199 .5zM219 408c-.4.3-.8 3.4-.9 6.9 0 4.1-.5 6.8-1.3 7.3-1 .6-1 .8 0 .8 1.7 0 1.2 4.1-.8 5.8-1.3 1.1-1.3 1.1.1.7 1.4-.5 1.6.6 1.6 8 0 4.7-.4 8.5-.9 8.5s-.6-.5-.2-1.2c.5-.7.3-.8-.6-.3-1 .6-1 1 .3 2 1.7 1.2 1.9 5.5.2 5.5-.6 0-.5.3.2.8 1.4.9 1.2 11.2-.2 11.2-.5 0-.5.4.1.8 1.7 1.1 1.3 10.4-.6 12-1.3 1-1.2 1.1.4.5 1.7-.6 1.8-.3 1.3 2.4-.7 3.7 1.1 6 3.3 4 1-1 1.2-.9.7.5-.4 1-.2 1.8.3 1.8.6 0 1-.3 1-.8 0-.4 2.7-.8 6-.8 3.3-.1 5.7.3 5.4.8-.3.4-1 .5-1.6.2-.7-.4-.8-.2-.4.5.6.9 1.1.9 2.3-.1 1.9-1.6 9.3-1.8 11.2-.4 1.1.8 1.3.8.8 0-.7-1.3 6.5-1 8.7.3.6.4.4-.2-.4-1.2-1.4-1.7-1.4-1.8.5-.8 1.1.6 2.8.9 3.8.7 1.2-.1 1.7.2 1.4 1-.3.7.1 1.3.9 1.3s1.3-.5 1.1-1.2c-.3-.6.4-1.2 1.5-1.2 1.6-.2 1.7.1.7 1.3s-.9 1.3.5.8c.9-.3 1.6-1 1.6-1.5s.5-.9 1-.9c.7 0 .7.6 0 1.9-.7 1.5-.7 2.2.2 2.7.7.4 1 .4.6-.1-1.7-1.8 1.2-4.4 4.7-4.2 2.1.1 3.3.7 3.1 1.3-.2.6.2 1.1 1 1.1s1.3-.5 1.1-1.2c-.3-.6.4-1.2 1.5-1.2 1.6-.2 1.7.1.7 1.3s-.9 1.3.5.8c.9-.3 1.6-1 1.6-1.4 0-.5 2.5-.7 5.5-.6 6.2.3 5.8 1.1 5.7-11.4 0-4 .4-6.8 1.1-7.2.9-.6.9-.8 0-.8s-1.1-7-1-27.8c.1-15.2-.2-28.2-.5-28.7-.5-.8-10-1.2-13.3-.5-.5.1-1.4.1-2 0-2.3-.4-58.8-.5-59.5 0zM330.6 407.7c-.1.1-1.7.3-3.6.4l-3.5.3.1 8.3c.1 5.9-.1 8.1-1 7.6-.7-.4-.7-.1.1.8 1 1.2 1 1.8 0 2.9-.6.7-.7 1-.1.7.8-.5 1.1 7.3 1 27.3-.1 17.9.3 28.1.9 28.3.6.2 2.5.3 4.3.2 3.2-.2 4.3.9 2 1.9-.7.2-.3.4.9.2 1.2-.1 2.6-.6 3-1.1.5-.4.2-.5-.4-.1-.7.4-1.3.2-1.3-.4 0-.6 1.1-.8 2.6-.6 1.5.3 3.5.1 4.5-.4 1.1-.6 2-.6 2.4-.1.3.5 3 .8 6.1.6 4.7-.3 5.3-.1 4.3 1.1-1 1.2-.9 1.3.5.8.9-.3 1.6-1 1.6-1.5s.5-.9 1-.9c.7 0 .7.7 0 2.2-1.1 2.2-1.1 2.3.5.3 1.3-1.6 2.8-2 7.6-2 5.1 0 5.7.1 4.3 1.2-1 .7-1.3 1.3-.7 1.3.7 0 1.8-.6 2.5-1.3 1.4-1.3 17.5-1.7 19.5-.4.6.4 1.3.2 1.5-.5.3-.9.9-.8 2.2.5 2.2 2.2 3.3 2.2 1.5 0-1.3-1.5-1.1-1.6 1.1-1 1.4.3 3 .3 3.5-.1 1.1-.8 1.4-35.2.3-35.2-.4 0-.5-.7-.2-1.5.4-.8 1.1-1.2 1.8-.8.6.4.5-.1-.2-1-.8-.9-1.1-2-.8-2.5.3-.5.1-2.3-.3-4-.5-1.7-.7-3.3-.4-3.6 1.1-1.1.9-27.3-.2-27.4-3.8-.6-54.5-.6-54.5 0 0 .4-.6.5-1.3.2-1.3-.5-12.7-1.1-13.1-.7z"/><path d="M340.2 484.9c-1.1.7-1.1.9 0 1.4.9.3 1.5-.1 1.5-.9s-.1-1.4-.1-1.4c-.1 0-.7.4-1.4.9zM241.5 486c-.3.5-.1 1 .4 1 .6 0 1.1-.5 1.1-1 0-.6-.2-1-.4-1-.3 0-.8.4-1.1 1zM283.6 486.5c-.9 2.6-.7 3.2.5 1.2.6-1 .9-2.1.6-2.3-.2-.3-.7.2-1.1 1.1zM289.3 486.9c0 1.1.5 1.8.9 1.5.4-.3.5-1.1.1-1.9-.7-2.1-1.2-1.9-1 .4zM379.5 486c-.3.5-.1 1 .4 1 .6 0 1.1-.5 1.1-1 0-.6-.2-1-.4-1-.3 0-.8.4-1.1 1zM385 486c0 .5.5 1 1.1 1 .5 0 .7-.5.4-1-.3-.6-.8-1-1.1-1-.2 0-.4.4-.4 1zM224.6 487.7c-.6 1.4-.5 1.5.5.6.7-.7 1-1.5.7-1.8-.3-.3-.9.2-1.2 1.2zM227.5 487.1c-.4.6-.5 1.2-.2 1.5.2.3.7-.2 1-1.1.7-1.7.1-2-.8-.4zM257.5 487c-.4.6-1.1.7-1.7.4-.7-.4-.8-.2-.4.5.6.9 1.1.9 2.2 0 1.4-1.1 1.8-1.9 1-1.9-.3 0-.8.5-1.1 1zM273.5 487c-.3.5-1.2.7-2 .3-.8-.3-1.5-.3-1.5 0 0 1.3 3 1.4 4 .1.7-.8 1-1.4.7-1.4-.3 0-.8.4-1.2 1zM345.1 486.7c-.2 2 1.6 2.4 3 .5 1.3-1.5 1.2-1.6-.3-.4-1.3 1-1.7 1-2.1 0-.4-.9-.6-.9-.6-.1zM361 487c-.9.6-1 1-.3 1 .6 0 1.5-.5 1.8-1 .8-1.2.4-1.2-1.5 0zM373.1 487.6c0 1.1.3 1.4.6.6.3-.7.2-1.6-.1-1.9-.3-.4-.6.2-.5 1.3zM235 487.4c0 .2.7.7 1.6 1 .8.3 1.2.2.9-.4-.6-1-2.5-1.4-2.5-.6zM325 488c0 .5.5 1 1.1 1 .5 0 .7-.5.4-1-.3-.6-.8-1-1.1-1-.2 0-.4.4-.4 1zM363.3 490.5c0 .8.4 1.2.9.9.5-.3.6-1 .3-1.5-.9-1.3-1.2-1.1-1.2.6zM218.1 515.2c-.3.9-.5 7.3-.5 14.2.1 7.3-.2 12.6-.8 12.6-.5 0-.6-.5-.2-1.2.5-.7.3-.8-.6-.3-1 .6-1 1 .3 2 1.7 1.2 1.9 5.5.2 5.5-.6 0-.5.3.2.8 1.4.9 1.2 11.2-.2 11.2-.5 0-.5.4.1.8 1.7 1.1 1.3 10.4-.6 12-1.3 1-1.3 1.1.3.6 1.5-.5 1.7 0 1.4 3.7-.1 2.4-.6 5-1.1 5.8-.7 1-.5 1.2.3.6.9-.5 1.2-.1 1.1 1.1-.4 3.8.1 4.9 2.7 6.1 1.5.7 2.9 1.1 3.1.8.3-.3 0-.5-.7-.5s-.9-.5-.6-1.1c.5-.7 1.4-.4 2.8.8 1.1 1 1.7 1.2 1.3.5-.6-1 1.3-1.2 8.8-1.1 8.6.1 9.6.3 9.6 1.9 0 1.1.4 2.1.8 2.4.4.2.8-.8.7-2.2 0-1.9.4-2.6 1.5-2.4.8.2 3.2.4 5.3.4 2.1-.1 3.5.3 3.2.9-.4.5-1.2.6-1.8.3-.9-.5-.9-.4 0 .6s1.5 1 2.7-.2c.8-.9 1.2-1.9.8-2.2-.3-.4.5-.3 1.8.2 1.4.5 3.7.6 5.3.1 1.5-.4 2.5-.5 2.3-.1-.2.4 3.4.5 8 .3 6.1-.2 8.9.1 10.1 1 1.4 1.2 1.6 1.2.8 0-.6-1.1-.3-1.3 1.3-.9 1.2.4 2.2.2 2.2-.4 0-.5.5-.6 1-.3.6.4.7 1.2.4 1.8-.4.7.1.5 1.1-.5 1.5-1.4 1.7-3.9 1.8-23 0-14.5.3-21.5 1.1-22 .8-.6.8-.8-.1-.8-.8 0-1.1-4.1-1.1-15 .1-8.3-.2-15.3-.6-15.7-.4-.5-17.4-.8-37.8-.8-34 0-37.1.1-37.7 1.7zM324.2 513.8c-.6.2-.6 1.8-.2 3.8.4 1.9.4 3.6 0 3.9-.5.3-.7 1.4-.5 2.5.2 1.1-.2 2-.8 2-.9 0-.9.2-.1.8.8.5 1.1 9.6 1 30.6-.1 19.4.3 30.4.9 31.3.8 1.1 3.8 1.5 12 1.6 6.1.1 11.6-.2 12.3-.7.7-.4 1.4-.1 1.8.8.7 1.9 3.2 2.8 4 1.4.4-.6.3-.8-.4-.4-.6.3-1.3.2-1.6-.3-.4-.5 1.4-.9 4-.9 3.6 0 4.4.3 4 1.4-.3.9-.1 1.2.4.9.6-.3 1-1.4 1-2.3 0-1.4.2-1.5.9-.2.6.8.8 1.7.6 2-.2.4.2.7 1 .7 1.1 0 1.2-.4.4-1.3-.8-1 .7-1.2 7.1-1.1 4.5.1 8.4-.2 8.7-.7.4-.5 1.2-.1 2 .9.7 1.1 1.3 1.4 1.3.7 0-.8 2.4-1.1 7.4-1.1 4.1.1 7.9-.2 8.4-.4.7-.5.8-7 .2-8.7-.1-.3-.1-1 0-1.5.6-2.8.4-34.5-.2-34.5-.4 0-.5-.7-.2-1.5.4-.8 1.1-1.2 1.8-.8.6.4.5-.1-.2-1-.8-.9-1.1-2-.8-2.5.3-.5.1-2.3-.3-4-.5-1.7-.7-3.3-.3-3.6.9-1 .8-5.6-.1-5.6-.6 0-.5-.5 0-1.3 1.1-1.4 1-9.3-.1-10.5-.7-.6-73.4-1.1-75.4-.4z"/><path d="M247.4 591.4c.1.8.5 1.8.8 2.2.4.3.5-.1.4-1-.1-.8-.5-1.8-.8-2.2-.4-.3-.5.1-.4 1zM229 592c0 .3 1.4.6 3 .6 1.7 0 3-.3 3-.6 0-.4-1.3-.7-3-.7-1.6 0-3 .3-3 .7zM263.4 592.1c-.3.6-.1 1.6.5 2.2.9.9 1 .7.5-.8-.7-1.8-.6-1.9.9-.6 1.5 1.2 1.7 1.2 1.1-.3-.7-1.8-2-2.1-3-.5zM275.9 592.7c-1.2 1.6-1.2 1.7.2.6.9-.7 1.9-1 2.2-.6.4.3.7.1.7-.5 0-1.7-1.6-1.5-3.1.5zM280.5 592c-.3.6.1.7.9.4 1.8-.7 2.1-1.4.7-1.4-.6 0-1.3.4-1.6 1zM331.5 592.1c-.4.6-.4 1.3-.1 1.6.3.4.6.1.6-.6s.5-.9 1-.6c.6.4.7 1.1.4 1.7-.4.7-.2.8.5.4.9-.6.9-1.1 0-2.2-1.4-1.7-1.6-1.7-2.4-.3zM341.4 592.2c-.4.7-.4 1 .1.6.4-.4 1.4 0 2.2 1 1.3 1.5 1.3 1.5.3-.6-1.2-2.5-1.6-2.7-2.6-1zM345.5 591.9c-.3.5-.2 1.2.3 1.5.5.3.9-.1.9-.9 0-1.7-.3-1.9-1.2-.6zM367.6 592.7c-.6 1.4-.5 1.5.5.6.7-.7 1-1.5.7-1.8-.3-.3-.9.2-1.2 1.2zM373.4 592.2c-.4.7-.4 1 .1.6.4-.4 1.4 0 2.2 1 1.3 1.5 1.3 1.5.3-.6-1.2-2.5-1.6-2.7-2.6-1zM377.5 591.9c-.3.5-.2 1.2.3 1.5.5.3.9-.1.9-.9 0-1.7-.3-1.9-1.2-.6zM389 591.8c0 .5.7.9 1.5.9s1.2-.4.9-.9c-.3-.4-.9-.8-1.5-.8-.5 0-.9.4-.9.8zM223.6 594.2c.3.5 1 .6 1.5.3 1.3-.9 1.1-1.2-.6-1.2-.8 0-1.2.4-.9.9zM208.9 687.7c-.1 2.6-.1 7.4-.1 10.6 0 3.2-.4 5.5-.9 5.2-.5-.4-.9-.1-.9.4 0 .6.4 1.1.9 1.1s.9 1.6.9 3.5c0 2-.5 3.5-1.1 3.5-.7 0-.5.5.3 1 1.3.8 1.3 1.3.2 3.1-.8 1.1-.9 1.8-.3 1.5.7-.4 1 1 .9 3.8 0 3.1-.4 4.3-1.2 3.9-.6-.4-.5.1.3 1.1 1.3 1.5 1.3 1.9 0 2.7-1 .6-1 .9-.1.9.6 0 1.2.9 1.2 2.1 0 1.3-.4 1.8-1.2 1.3-1-.6-1-.5-.2.7 1.5 1.9 1.5 7.1 0 6.2-.7-.4-.6-.1.1.8 1.5 1.8 1.3 10.1-.2 11.1-.6.5-.6.8.2.8.6 0 1.1 1.5 1.1 3.5s-.5 3.5-1.1 3.5c-.7 0-.5.5.3 1 1.3.8 1.3 1.3.2 3.1-.8 1.1-.9 1.8-.4 1.5.6-.4 1 1.2 1 3.9 0 3.1-.3 4.3-1.1 3.9-.8-.5-.8-.2.1.7.6.7 1.2 1.9 1.2 2.7 0 .8-.5 1-1.2.6-.8-.5-.8-.1.1 1 1.3 1.5 1.3 1.9 0 2.7-1 .6-1 .9-.1.9.6 0 1.2.7 1.2 1.6 0 .9-.5 1.2-1.2.8-1-.6-1-.5-.1.7 1.4 1.8 1.4 11.9-.1 11.9-.6 0-.4.5.4 1 1.3.9 1.3 1.1 0 2-.8.5-1 1-.3 1 .6 0 1.1 1.5 1.1 3.5s-.5 3.5-1.1 3.5c-.7 0-.5.5.3 1 1.3.8 1.3 1.3.2 3.1-.8 1.1-.9 1.8-.3 1.5.7-.4 1 1 .9 3.8 0 3.1-.4 4.3-1.2 3.9-.6-.4-.5.1.3 1.1 1.3 1.5 1.3 1.9 0 2.7-1 .6-1 .9-.1.9.6 0 1.2.9 1.2 2.1 0 1.3-.4 1.8-1.2 1.3-1-.6-1-.5-.2.7 1.5 1.9 1.5 7.1 0 6.2-.7-.4-.6-.1.1.8 1.5 1.8 1.3 10.1-.2 11.1-.6.5-.6.8.2.8.6 0 1.1 1.5 1.1 3.5s-.5 3.5-1.1 3.5c-.7 0-.5.5.3 1 1.3.8 1.3 1.3.2 3.1-.8 1.1-.9 1.8-.4 1.5.6-.4 1 1.2 1 3.9 0 3.1-.3 4.3-1.1 3.9-.8-.5-.8-.2.1.7 1.6 1.7 1.6 4.3 0 3.3-.8-.5-.8-.1.1 1 1.3 1.5 1.3 1.9 0 2.7-1 .6-1 .9-.1.9.6 0 1.2.7 1.2 1.6 0 .9-.5 1.2-1.2.8-1-.6-1-.5-.1.7 1.4 1.8 1.3 11.1-.1 12.1-.7.5-.7.8.2.8.6 0 1.2.9 1.2 2.1 0 1.3-.4 1.8-1.2 1.3-1-.6-1-.4 0 .7.6.7 1.2 1.9 1.2 2.7 0 .8-.5 1-1.2.6-1-.6-1-.4-.2.7 1.6 2 1.6 12.1.1 11.2-.7-.4-.6.1.2 1.1 1.3 1.5 1.3 1.9 0 2.7-1 .6-1 .9-.1.9.6 0 1.2.8 1.2 1.8s-.6 2.4-1.2 3.1c-.9 1-.9 1.2-.1.7 1.4-.8 1.3 6.1-.1 8.3-.7 1-.6 1.2.4.6s1.2-.4.7.8c-.6 1.7.7 2.2 4.2 1.8.8-.2 1 .2.5 1s-.3.9.7.3c2.1-1.3 3.9-1.4 3.9-.1 0 .8.4.7.9-.2.7-1.1 1.1-1 2.1.5.8 1.4 1 1.5.6.3-.3-1.3.2-1.6 2-1.5 1.3 0 2.4.5 2.4 1.1 0 .5.4.4.9-.3 1.1-1.9 2.4-1.7 3.2.5.7 1.7.8 1.6.8-.2.1-1.7.3-1.7 1.1-.5.5.8 1 1 1 .4 0-1.7 3-1.2 3.1.5 0 1.4.1 1.4.7.1.8-1.8 4.3-2.1 5.4-.5.5.7.8.6.8-.1 0-1.7 3-1.2 3.1.5 0 1.4.1 1.4.7.1.8-1.8 10.2-2.2 11.4-.5.5.7.8.7.8 0 0-.6.9-1.1 2-1.2 1.3-.1 1.8.2 1.3 1-.5.9-.3.9.8 0 1.2-1 1.8-1 2.9 0 1 .9 1.1.9.6-.1-.4-.7-.1-1.2.9-1.2 1.3 0 1.4.4.5 2-.6 1.1-.8 2-.6 2 .3 0 1.2-1.2 2-2.8.8-1.5 1.5-2.1 1.6-1.3 0 1.1.3 1.1 1.5.1.8-.6 1.9-.9 2.5-.5.5.3 1.6.3 2.3-.2.6-.4 2-.9 3-1 .9-.2 2.6-.4 3.7-.6 1.1-.2 2.3-.6 2.6-1 .4-.4 2-.7 3.6-.7 2 0 2.7-.4 2.2-1.2-.5-.8-.2-.9.9-.5 1 .3 1.7.2 1.7-.4 0-.6.4-.8.9-.4.6.3 1.5-.4 2.1-1.5 1.2-2.2 3.7-2.2 3.2-.1-.1.7.2 1 .8.6.6-.3.8-1.1.4-1.6-.7-1.2 1.5-4.1 2.6-3.4.4.2 1.3-.7 2-2 .7-1.4 2-2.5 2.7-2.5.8 0 1.1-.4.8-1-.3-.5.1-1 1-1s1.3-.5 1-1c-.3-.6.1-1.3.9-1.6.9-.3 1.6-1.2 1.6-1.8 0-.7.7-2.1 1.6-3.2.8-1 1.2-1.3.8-.5-.4.9-.3 1.2.4.7.6-.4.9-1.3.6-2.1-.7-1.7 1.4-5.7 2.6-5 .4.3.6-.5.2-1.7-.3-1.4-.1-1.9.6-1.4.6.3 1.4.1 1.8-.5.4-.7.3-.9-.4-.5-.6.3-1.3.2-1.6-.3-.4-.5-.1-1.3.5-1.6.5-.4.8-1.3.5-2.1-.3-.8-.1-1.4.5-1.4s.7-.4.4-1c-.3-.5-.2-1 .3-1s.8-1.4.7-3c-.1-1.6 0-3 .4-3 .3 0 .5-1.5.5-3.2-.1-1.8.3-4.3.7-5.6.6-1.4.5-2.2-.2-2.2-.8 0-.7-.5.1-1.5.9-1.1.9-1.5.1-1.5-.7 0-.9-.5-.5-1.2 1.1-1.7 1.2-4.8.3-4.8-.4 0-.5-.8-.3-1.8 1-5 1.1-9.2 0-9.6-.7-.3-.6-.5.2-.5.7-.1 1.1-.5.8-1-.3-.4-.8-3.9-1.1-7.7-.6-7.5-.8-9.1-2.4-14.2-.5-1.7-.7-3.2-.3-3.2.4 0 .1-.4-.6-.9-.7-.4-1.4-1.8-1.5-2.9-.1-1.2-.4-2.2-.7-2.2-.3 0-1.8-2.1-3.5-4.5-1.6-2.5-3.4-4.5-3.8-4.5-.5 0-.5-.5-.1-1.2.4-.6.3-.8-.3-.5-.5.4-2-.5-3.1-1.8-1.2-1.4-2.8-2.5-3.6-2.5-.7 0-1.9-.6-2.5-1.3-.8-1.1-.5-1.7 1.4-2.7 1.4-.7 2.5-1.7 2.5-2.2 0-.5 1.3-1.4 3-1.9 1.7-.6 2.7-1.6 2.3-2.2-.4-.7 0-.8 1.1-.4.9.4 1.5.3 1.2-.2-.7-1 3.3-5.7 4.5-5.4.4.2.5-.5.2-1.4-.5-1.3-.2-1.5 1.2-1 1.4.6 1.5.5.7-.6-.8-.9-.6-2.2.6-4.7.9-1.9 1.9-3.7 2.2-4 .3-.3.6-1.9.7-3.5.4-6.1.8-7.5 1.8-7.5.5 0 .3-.5-.5-1-1.3-.9-1.3-1 0-1 .9 0 1.1-.3.5-.8-1.1-.8-1.4-8.2-.3-8.2.4 0 .6-.9.5-2-.1-1.1-.5-2-1-2s-.4-.7.3-1.5c1-1.2 1-1.9.2-2.7-.8-.8-.8-1.7-.1-3 .6-1.2.6-1.8 0-1.8-.7 0-.7-.9-.1-2.6.6-1.5.6-2.3.1-1.9-.6.3-1-.3-1-1.2 0-1-.2-2.9-.5-4.3s-.8-4.1-1.2-6c-.4-1.9-.7-4.3-.8-5.2 0-.9-.4-1.4-.8-1.2-.4.3-.8-.6-.8-2s-.3-2.6-.8-2.6c-.4 0-1.6-1.6-2.7-3.6-1-1.9-2.7-4.5-3.7-5.6-1-1.1-1.5-2.6-1.1-3.2.3-.6.3-.8-.1-.4-.4.3-2.8-1.3-5.4-3.7-5.9-5.6-16.5-10.9-26.7-13.3-6.9-1.7-12.1-2-39.7-2.1l-31.8-.2-.1 4.8zm40.6 30.7c.8.7 1.1 1.7.7 2.1-.4.5-.1.5.6.1.9-.5 1-1.2.3-2s-.4-1.2 1.2-1.2c1.2 0 2.8.7 3.5 1.5 1 1.4 1.1 1.3.5-.4-.6-1.8-.5-1.8 1-.6.9.7 1.7.9 1.7.4s2-.9 4.4-.9c2.4.1 4.2.4 3.9.8-.2.5.4.7 1.4.6 3.5-.3 5.4.2 4.8 1.2-.3.5-.1 1 .4 1 .6 0 1.1-.5 1.1-1 0-.6.8-.5 1.9.2 1.1.7 1.7 1.6 1.4 2.2-.4.5-.1.6.7.1.8-.5 2 .1 3.2 1.6 1.1 1.3 1.6 1.8 1.2 1-.5-1-.3-1.2.5-.7.9.6.9 1.1 0 2.2-.6.8-.9 1.7-.5 2.1.3.3.6.1.6-.5 0-.7.5-1.2 1.1-1.2.6 0 .8.9.4 2.2-.5 1.8-.4 2 .4.8 1-1.3 1.5-.8 1.2 1.2 0 .5.3.8.8.8.9 0 2 3.3 2.8 9 .8 5.5.9 18 .1 18-.4 0-.5.6-.2 1.4.3.8.1 1.7-.5 2-.6.4-.8 1.3-.5 2 .7 1.9-1.4 9.6-2.7 9.6-.6 0-.8.4-.5.9.8 1.3-5.1 7.1-9 8.7-4.7 2-9.4 2.6-20.6 2.8-10.6.1-10.8 0-11.5-5.7-.2-1.8.1-2.6.8-2.1.6.3.5-.3-.3-1.5-1.1-1.7-1.1-2.5 0-4.2.8-1.2.9-1.8.4-1.5-.7.4-1-2.7-1-8.4.1-6.2.4-8.7 1.2-8.3.8.5.8.3 0-.8-1.5-1.9-1.6-16.1 0-15.2.6.3.6 0-.1-.8-.7-.7-1.3-1.9-1.3-2.7 0-.8.5-1 1.3-.6.8.5.8.2-.2-.9-1.1-1.4-1.1-1.7 0-1.7s1.1-.2.2-.8c-1.5-.9-1.5-8.1 0-9.9.5-.7 1.4-1 2.1-.6.6.3.6 0-.1-.8-2.4-2.5-1.3-4 1.2-1.5zm-2.5 1c0 .3-.4.8-1 1.1-.5.3-1 .1-1-.4 0-.6.5-1.1 1-1.1.6 0 1 .2 1 .4zm.6 99.5c-.2.3.3 1.2 1.1 2 1.3 1.2 1.4 1.1.9-.5-.5-1.7 0-1.9 6.7-1.9 7 0 7.4.1 7.1 2.2-.1 1.3.1 2.5.6 2.8.4.2.7-.3.7-1.3 0-3.9.2-4.2 2.7-3.2 1.3.5 2.7.6 3 .3.3-.4.6-.1.6.6s.7 1 1.8.7c2.3-.8 8.5 2.6 8.8 4.8.1 1 .6 2.1 1 2.4.4.4.4-.1.1-1.1-.5-1.3-.3-1.7.5-1.4.7.2 1.2 1.1 1.2 2-.1.9.3 1.5 1 1.4.6-.1 1 .4.8 1-.1.7.3 1.3 1 1.3.6 0 .9.3.5.6-.3.4.1 1.3.9 2.2 1.1 1.1 1.2 1.7.4 2.2-.8.5-.6.9.5 1.4 1.4.5 1.5.9.5 2.1-1 1.2-1 1.5 0 1.5.8 0 1.1 1.3.8 4-.2 2.2-.1 4 .2 4 .4 0 .4 9.9 0 23.8-.1 2.3-.5 4-.8 3.8-.4-.2-.7 1.2-.8 3.1 0 1.9-.6 3.8-1.3 4.2-.7.5-1.2 1.1-1.2 1.5.3 1.8-.2 2.6-3 5.6-5.7 5.9-10.8 7.4-25.4 7.7l-13.1.3-.1-9c-.1-6.4.2-9 1-9s.9-.3.1-.8c-1.5-1-1.6-26.5-.1-27.4.7-.5.8-.8.2-.8-.7 0-1.1-3.5-1.2-9-.1-6.6.2-8.8 1-8.3.9.5.9.3 0-.8-1.5-1.8-1.5-10.1 0-9.2.6.4.7.1.1-.8-1.3-2.1-1.2-5.6.3-5.6.6 0 1.1.3.9.6z"/><path d="M260.1 719.6c0 1.1.3 1.4.6.6.3-.7.2-1.6-.1-1.9-.3-.4-.6.2-.5 1.3zM263.7 720.4c-.4.9-.2 1.8.4 2.1.5.4.9.3.8-.2-.4-2 .2-2.7 1.2-1.3.9 1.2 1 1.2.7.1-.6-2.1-2.4-2.5-3.1-.7zM269.4 720.1c-.3.6-.1 1.6.5 2.2.9.9 1 .7.5-.7-.6-1.5-.4-1.7.6-1.1.9.5 1.1.4.6-.3-.9-1.5-1.3-1.5-2.2-.1zM275 722.4c0 .2.7.9 1.5 1.6 1.3 1.1 1.4 1 .9-.4-.5-1.4-2.4-2.3-2.4-1.2zM279.6 725.3c.3 1 .9 1.5 1.2 1.2.3-.3 0-1.1-.7-1.8-1-.9-1.1-.8-.5.6zM287.5 735.9c-.3.5-.2 1.2.3 1.5.5.3.9-.1.9-.9 0-1.7-.3-1.9-1.2-.6zM255 821c-.9.6-1 1-.3 1 .6 0 1.5-.5 1.8-1 .8-1.2.4-1.2-1.5 0zM258 820.3c0 .2.6 1 1.4 1.6 1.1.9 1.6.9 2.2-.1.4-.7.4-1-.1-.6-.4.4-1.4.3-2.2-.3-.7-.6-1.3-.9-1.3-.6zM266.1 820.4c.2.2 1.5.9 2.9 1.5 2.4 1.1 2.4 1.1.6-.3-1.6-1.3-4.9-2.4-3.5-1.2zM273.4 822.1c-.4.7-.3.9.4.5.5-.3 1.3 0 1.5.6.4.9.6 1 .6.1.1-1.7-1.6-2.5-2.5-1.2zM247 887.9c0 .6.4 1.3 1 1.6.6.3.7-.1.4-.9-.7-1.8-1.4-2.1-1.4-.7zM388.1 684.7c-.5 1-1.2 3.9-1.6 6.5-.4 2.6-1 4.6-1.4 4.4-.3-.2-.6 1.1-.5 3 .1 1.9-.2 3.4-.6 3.4-.4 0-.8.6-.7 1.2.1 3-.4 4.9-1.1 4.4-.4-.2-.6 1.3-.5 3.5.1 2.1-.1 3.9-.5 3.9s-.8.8-.9 1.7c-.4 4.6-1.6 10.3-2.3 10.3-.4 0-.6 1.1-.5 2.4.2 1.3-.3 3.6-1.1 5-.7 1.5-.8 2.4-.3 2 .6-.4.6.4-.2 1.7-1.2 2.3-2.1 7.3-2 11.2 0 1.3-.5 1.7-1.6 1.3-1.2-.5-1.3-.3-.6.6 1 1.4 1 1.6-.1 7-.5 2.1-1.1 3.6-1.5 3.4-.3-.2-.6 1.1-.5 3 .1 1.9-.2 3.4-.7 3.4-.4 0-.6.7-.3 1.5.4.8.1 2.1-.5 2.9-.6.7-.9 1.5-.6 1.7.2.3-.1 2.5-.6 4.9-.6 2.5-1.3 5.4-1.5 6.5-.2 1.1-.6 3.1-.9 4.5-.4 1.4-.8 3.6-1.1 5-.3 1.4-.7 3.3-1 4.2-.3.9-.7 2.7-.9 3.9-.3 1.2-1 2.6-1.7 3.1-1 .6-1 .8-.1.8s1 .7.3 2.5c-.5 1.4-.9 2.9-.9 3.3.1.4 0 .9-.1 1.2-.1.3-.3 1.2-.5 2-1.2 4.9-1.6 6.8-1.9 9-.8 4.8-3.7 16.5-4.7 18.2-.6 1.2-.6 1.8 0 1.8s.3 1.6-.5 3.5-1.4 3.7-1.4 4c0 .3 0 .6-.1.7 0 .2-.2 1.4-.4 2.8-.5 2.8-1.2 6.2-1.5 7-.1.3-.2.8-.2 1.1.1.4-.3 2.2-.9 4-.5 1.9-1.2 4.7-1.4 6.2-.3 1.5-1.2 5.4-1.9 8.7-.8 3.2-1.1 6.2-.7 6.6.3.4 0 .4-.6 0-.9-.5-1.2-.1-1.1 1.1.3 3.4-.2 6.4-.9 6-.5-.3-.8.9-.9 2.6-.1 1.8-.4 4.3-.8 5.7-.3 1.4-.9 4.1-1.2 6-.3 1.9-.9 3.7-1.3 4-.3.3-.6 1.6-.5 3 0 1.4-.2 2.9-.6 3.5-.3.5-.6 1.7-.5 2.5.1.8-.5 3.2-1.2 5.3-.8 2.4-.9 4.5-.3 6 .5 1.2.9 1.7.9 1.2.1-1.2 8.5-1.4 9.7-.2 1 1 2.6.9 2-.1-.3-.5.2-.9 1-.9s1.3.6 1 1.3c-.3.8 0 1.6.6 2 .6.4.8.3.5-.2-.3-.6-.2-1.6.4-2.4.6-1 .9-1.1.9-.3 0 .7.5 1.3 1.1 1.3.5 0 .7-.4.4-1-1.1-1.7.7-1.1 2.1.7 1.1 1.4 1.3 1.5.9.2-.4-1 0-1.6.9-1.6.8 0 1.3.4 1 .9-.3.4 0 .8.5.8.6 0 1.1-.3 1.1-.8 0-.4 1.6-.7 3.5-.8 1.9 0 3.2.3 3 .7-.3.4.6.2 2-.4 1.4-.7 2.5-2 2.5-2.9 0-.9.6-1.9 1.3-2.2.9-.5.9-.7 0-1.2-.7-.3-.9-1.2-.6-2 .3-.7.9-1.2 1.3-.9.5.3 1.2.1 1.5-.5.4-.6.3-.9-.2-.8-1.3.5-1.5-1-.8-5.2.4-2.6 1.1-3.8 1.8-3.4.9.5.9.4.1-.5-1.2-1.3 1.2-14.1 2.9-15.2.6-.4.6-.9 0-1.2-1.1-.7.4-8 2.1-10.6.7-1.1.6-1.2-.5-.6-1.1.7-1.2.6-.2-.7.7-.8 1-1.8.6-2.1-.3-.4-.1-.7.5-.7.7 0 1.2.5 1.2 1.2 0 .6.3.8.6.5.4-.4.1-1.3-.6-2.2-.7-.9-1-1.8-.6-2.2 1.1-1.2 4.5-1.3 5.1-.2 1.1 1.7-.5 2.5-1.6.9-.9-1.3-1-1.3-.6 0 .5 2.1 3.2 1.9 3.1-.3-.1-.9.5-1.7 1.3-1.7s1.1.5.7 1.2c-.5.7-.3.8.7.2 2-1.3 10.9-1.3 10.2 0-.3.6 0 .6.7-.1 1-.9 1.8-.5 3.7 1.5 1.4 1.5 2 2 1.4 1.1-.6-.9-.7-2-.3-2.4.4-.5.1-.5-.5-.1-.7.4-1.3.2-1.3-.3 0-1.7 2.1-1.3 3.6.6 1.3 1.7 1.4 1.7.8 0-.7-1.9 1.5-2.1 2.8-.2.5.6.8.5.8-.3 0-1.8 2.1-1.5 3.6.5 1.1 1.4 1.3 1.5.9.2-.8-2.3 5.1-1.8 7.1.7 1.4 1.8 1.5 1.8.4-.4-1-2.1-.9-2.2 1.9-2 1.6.1 2.7.6 2.5 1-.3.4.3.8 1.3.8 1.4 0 1.5.2.4.9s-1.1.9 0 1.3 1.2.9.2 2.6c-1.1 1.8-1 2 .4 1.5 1.3-.5 1.5-.1 1.1 2.5-.2 1.7-.1 2.9.4 2.6.4-.3.8.4.8 1.6 0 1.4-.4 1.9-1.2 1.5-.7-.4-.4.1.6.9 1.1.9 1.7 1.9 1.3 2.2-.4.4-.2 1.3.4 2.1.9 1 .8 1.7-.2 3-.8.9-.9 1.4-.3 1 .7-.4 1.4.5 1.8 2.4.9 4.4.8 5.1-.6 4.3-.7-.4-.8-.3-.4.5.4.6 1.2.9 1.7.6.5-.4.9.2 1 1.2.1 2 .4 4.2 1.5 9.3.4 1.9.7 4.9.8 6.7 0 1.7.4 2.9.8 2.7.4-.3.8-.1.8.5 0 .5 1.4.8 3 .6 1.7-.2 2.8 0 2.5.6-.4.5-.1.9.4.9.6 0 1.1-.4 1.1-.8 0-1 8.1-.9 9.8.1.7.5 1.2.3 1.2-.4 0-.9.4-.8 1.3.3 1.4 1.7 5.2 3.3 4.2 1.8-.3-.6-1.3-1-2.1-1s-1.4-.3-1.4-.8c0-.4 2.5-.7 5.5-.7 4.5 0 5.4.2 5 1.5-.4 1.1-.1 1 .9-.3 1.5-1.9 3.1-2.3 2-.5-.6.9-.3.9.9-.1.9-.7 1.5-2.2 1.3-3.5-.3-1.1-.5-2.1-.7-2.1-.2 0-.5-1.8-1.3-6.5-.2-1.4-.5-2.5-.6-2.5-.2 0-.4-1.1-1.3-6-.4-1.7-1.5-6.7-2.6-11.3-1-4.5-1.9-8.5-2-8.7-.1-.3-.1-.6-.2-.8 0-.1-.3-1.6-.5-3.2-.3-1.7-.9-4.1-1.4-5.5-.5-1.4-1.2-4.1-1.4-6-.5-3.5-1-5.9-2.2-10.3-.4-1.2-.7-3.2-.8-4.5 0-1.2-.4-2.2-.7-2.2-.6 0-.8-1.4-1.2-7.9-.1-1.6-.6-2.7-1.1-2.3-.5.3-.7-.2-.3-1 .3-.9.3-1.9-.1-2.2-.7-.8-1.3-3.3-1.5-6.4 0-1.2-.4-2.2-.7-2.2-.3 0-.7-1.2-.8-2.8-.3-3.5-.7-5.3-1.7-7.5-.4-1-.8-3.8-.9-6.2 0-2.3-.5-4.1-1-3.8-.5.3-.7-.8-.4-2.5.3-1.9.1-2.9-.6-2.5-.5.4-.7-.1-.3-1 .3-1 .3-1.7-.2-1.7s-1.1-1.5-1.4-3.3c-.5-3.2-1.3-7.2-2.2-11.4-.3-1.3-.6-2.5-.6-2.8-.1-.2-.9-3.6-1.9-7.4-1.3-5.2-1.5-7.3-.6-8.2.8-.9.8-1-.1-.5-.7.4-1.3.4-1.4-.1-.3-3.2-1.1-6.9-1.9-8.2-.5-1-.4-2.4.2-3.5.8-1.4.7-1.7-.1-1.2-1 .7-1.5-1.3-1.5-6.6 0-.9-.3-1.5-.8-1.2-.7.5-1.1-1.4-1.1-5.9 0-.9-.3-1.7-.7-1.7-.4 0-.8-1.1-.9-2.5-.4-5.6-.6-6.5-1.1-6.5-.5 0-1-3.3-1.3-7.8 0-.6-.5-1.2-1-1.2s-.7-1.4-.5-3c.3-1.7.1-3-.3-3-.3 0-.9-1.1-1.1-2.5-.3-1.4-.1-2.5.6-2.5s.6-.3-.2-.8c-1.2-.8-2-3.3-2.7-8.7-.2-1.1-.4-2.2-.5-2.5-.1-.3-.3-1-.4-1.5-.5-2.6-1.8-7.2-2.7-9.3-.7-1.7-.6-2.1.2-1.6s.9.3.3-.7c-.5-.8-1.6-4.1-2.4-7.4l-1.5-6-14.7-.3c-13.2-.2-14.8-.1-15.7 1.5zm17.3 84.5c-.3.5-.2.8.3.8.4 0 .9 1 1 2.3.2 1.2.4 3.3.5 4.7.2 1.4.8 2.8 1.3 3.2.6.5.4.8-.5.8-1.1 0-1.2.2-.3.8.7.4 1.4 2.4 1.6 4.5.2 2 .7 4 1 4.4 1.5 1.4.6 2.5-1 1.2-1.3-1-1.2-.6.3 1.1 1.2 1.5 2 3.8 2 5.7-.1 1.8.2 3.3.5 3.3s1.2 3.7 1.9 8.2c.8 4.6 1.5 8.5 1.5 8.8.1.3.5 1.6.8 3 .4 1.4.9 4.1 1.2 6 .2 1.9.8 4.8 1.1 6.5.3 1.6.7 3.9.9 5 .1 1.1.3 2 .4 2 .1 0 .4 1.2.6 2.7l.4 2.7-17.7-.2c-15.2-.2-17.6-.4-17.3-1.7.2-.8.5-2.9.8-4.5.3-1.7.8-3.2 1.1-3.5.4-.3.8-2.5.9-4.9.2-2.4.8-5.1 1.5-5.9 1.1-1.3 1.1-1.4-.2-.7-1.2.6-1.2.5-.3-.5.6-.7.9-1.9.6-2.6-.3-.9.2-1.4 1.3-1.4 1.5 0 1.6-.2.5-.9-.7-.5-1.1-1.7-.7-2.7.3-1.1.8-3.7 1.2-5.9.3-2.2 1.1-4.6 1.7-5.4.9-1.1.9-1.3.1-.8-1.7 1 .1-6.4 1.8-7.4 1.1-.7 1-.9-.1-.9s-.9-.5.5-2.1c1-1.1 1.4-1.9.9-1.7-1.4.4-1.6-.6-.9-4.2.4-1.6 1.2-3 1.8-3 .6 0 .5-.4-.3-.9-.9-.6-1-1.1-.3-1.5.6-.4.8-1.4.5-2.3-.5-1.3-.2-1.5 1.3-1 1.7.6 1.7.5.2-.5-1.5-1.1-1.5-1.3 0-2.6.9-.7 1.1-1.1.5-.7-2 1-1.5-1.3.5-2.4.9-.6 1.2-1.1.5-1.1-1.3 0-1.1-3.3.6-8.8 1.1-3.6 1.1-3.5 1.2-6 .1-.9.7 1 1.4 4.3s1.1 6.3.9 6.7z"/><path d="M403 769c-.6 1.1-.8 2-.6 2 .3 0 1-.9 1.6-2 .6-1.1.8-2 .6-2-.3 0-1 .9-1.6 2zM395 801.9c0 .6.4 1.3 1 1.6.6.3.7-.1.4-.9-.7-1.8-1.4-2.1-1.4-.7zM492.9 683.7c-.1.5-.2 2.4-.3 4.3-.1 1.9-.5 4.1-.9 4.7-.5.7-.4 1.3 0 1.3 1.1 0 1 6.1-.2 7.9-.5.8-.4 1.2.1.8 1.1-.6 1.1 7.3 0 9.1-.4.7-.3 1.2.1 1.2.5 0 .8 2.2.8 5 0 2.7-.4 5-.8 5-.5 0-.5.5-.1 1.2 1.1 1.7 1.2 6.8.2 6.8-.5 0-.5.8-.1 1.7 1.1 2.3 1 7.4-.1 9.2-.5.8-.5 1.2 0 .8.5-.3.9.6.9 1.9 0 1.3-.4 2.4-.9 2.4-.6 0-.5.5.1 1.1.8.8.8 2 .3 3.5-.5 1.3-.6 2.4-.1 2.4 1.2 0 .9 3.3-.4 4.2-.6.5-.5.8.4.8 1.1 0 1.1.3.1 1.5-.7.9-.8 1.5-.2 1.5 1.2 0 1 3.3-.3 4.2-.7.5-.6.8 0 .8 1.3 0 1.3 13 0 15-.5.7-.4 1.1.1.7 1.2-.7 1.1 13.4-.1 15.2-.5.8-.4 1.2.1.8 1.1-.6 1.1 7.3 0 9.1-.4.7-.3 1.2.1 1.2.5 0 .8 2.2.8 5 0 2.7-.4 5-.8 5-.5 0-.5.5-.1 1.2 1.1 1.7 1.2 6.8.2 6.8-.5 0-.5.8-.1 1.7 1.1 2.3 1 7.4-.1 9.2-.5.8-.5 1.2 0 .9.5-.4.9.5.9 1.8s-.4 2.4-.9 2.4c-.6 0-.5.5.1 1.1.8.8.8 2 .3 3.5-.5 1.3-.6 2.4-.1 2.4 1.2 0 .9 3.3-.4 4.2-.6.5-.5.8.4.8 1.1 0 1.1.3.1 1.5-.7.9-.8 1.5-.2 1.5 1.2 0 1 3.3-.3 4.2-.7.5-.6.8 0 .8 1.3 0 1.3 13 0 15-.5.7-.4 1.1.1.7 1.2-.7 1.1 13.4-.1 15.2-.5.8-.4 1.2.1.8 1.1-.6 1.1 7.3 0 9.1-.4.7-.3 1.2.1 1.2.5 0 .8 2.2.8 5 0 2.7-.4 5-.8 5-.5 0-.5.6-.1 1.2.5.7.8 5.1.9 9.8 0 6.3-.4 8.8-1.5 9.8-1.3 1.1-1.2 1.1.7.3 3.1-1.6 3.7-1.4 2.2.6-1.3 1.7-1.3 1.7.5.3 1.3-1 4.3-1.5 9.3-1.5 6.4-.1 7.4.2 7 1.6-.2.8.1 1.6.8 1.6.7 0 1-.9.7-2.1-.4-2-.4-2 1-.2 1.5 1.9 1.5 1.9 2.6 0 .8-1.4 1.2-1.5 1.2-.4 0 1.3.1 1.3 1 0 .5-.8 1-1.1 1.1-.5.2 2.4.8 4.7 1.4 5.3.3.4.3-.8 0-2.6-.5-3-.4-3.2 1.4-2 1.1.7 1.7 1.6 1.4 2.2-.3.5-.1.6.6.2.9-.6.9-1.1 0-2.2-1-1.2-1-1.5.2-1.2.8.2 1.7.7 2.1 1.3.5.6.8.5.8-.4 0-.7.6-1.1 1.4-.8.9.4 1.3.1 1-.6-.6-1.7-1-17.7-.4-17.7.3 0 .3-6.1 0-13.5-.4-11.2-.2-13.8 1-15.1 1.3-1.3 1.3-1.4 0-.9-1.3.4-1.5-.6-1.3-6.5 0-3.9.7-7.7 1.3-8.6 1-1.2 1-1.3-.1-.9-1.2.4-1.3-1.7-.9-13 .3-7.5.2-14.7-.2-16-.3-1.4-.2-2.5.3-2.5.6 0 .7-.5.4-1.1-.6-.8-.9-14.5-.5-17.7.4-3.3-.1-22.5-.6-23.4-.5-.7-.2-.9.9-.5s1.4.2 1-.9c-.3-.7-1-1.4-1.7-1.4-.6 0-.2-.7.8-1.5 1.1-.8 1.4-1.5.8-1.5-.7 0-1.2-1.1-1.2-2.5 0-2.8 1.5-3.4 2.4-.9.3.8.2 1.2-.4.9-.6-.3-1-.2-1 .3 0 .6.7 1.3 1.6 1.6 1.3.5 1.4.9.4 2.2-1 1.2-1.1 1.7-.1 2.7 1 .9 1.1.8.5-.8-.5-1.6-.4-1.8.6-.8.7.6 1.3 2.3 1.3 3.7 0 1.4.5 2.6 1.1 2.6.6 0 .4.5-.4 1-1.3.9-1.3 1 0 1 1 0 1.7 1.1 1.8 2.7.1 1.6.7 3 1.3 3.1.6.3.6.9-.2 1.8-.7.8-.9 1.7-.5 2.1.3.3.6 0 .7-.8 0-.8 1.1 1.5 2.4 5.1 1.9 5 2.1 6.7 1.2 8-.6.8-.7 1.2-.3.8.5-.5 1.6.1 2.3 1.2 1.2 1.8 1.3 2.4.1 3.7-.9 1.2-1 1.5 0 .9 1.2-.7 3.4 3.2 2.5 4.6-.2.5 0 .8.5.8.6 0 1.3 1.7 1.8 3.7.8 4.2.8 4.2 1.7 6.3 1.5 3.7 6.1 18.6 5.9 19.2-.1.5.2.8.7.8.5 0 .8 1.1.6 2.5-.1 1.4.2 2.5.6 2.5.5 0 .9.9.9 1.9 0 1.1.5 2.3 1 2.6.8.5.7 1.1-.1 2.1-1 1.2-1 1.5.1 1.2.8-.2 1.6.9 2 2.7.4 1.6.9 3.7 1.1 4.5.2.8 1.1 2.1 1.9 2.7 1.3 1.1 1.2 1.2-.5.6-2.1-.7-2.1-.5.8 1.7 1.4 1 1.7 1 1.5.1-.2-.9.9-1.4 3-1.5 2.2-.1 3.2.4 3.3 1.4 0 1 .3.8.9-.5.7-1.6.9-1.7.9-.3.1 1.9 2.9 1.8 4.1-.1.6-1 1.2-1 2.8-.2 1.5.8 2.3.8 2.8-.1.4-.7.3-.8-.4-.4-1.3.8-1.7-.6-.5-1.8.4-.3.8-1.6 1-2.9.2-1.2.8-2.6 1.3-3.1.4-.4.6-1.5.3-2.2-.3-.8.1-1.4 1-1.4s1.9-.4 2.2-1c.3-.5 0-.7-.9-.4-1.2.5-1.3 0-.4-3 .6-2 1.5-3.6 2-3.6s.7-.4.4-.9c-.8-1.3.4-4.2 1.4-3.6.5.3 1.2 0 1.6-.6.4-.7.3-.9-.4-.5-.6.3-1.3.2-1.6-.3-.4-.5-.1-1.3.5-1.6.5-.4.8-1.3.5-2-.3-.8-.1-1.5.5-1.7.5-.2 1.2-1.6 1.5-3.2.7-4 1.3-4.8 3.3-4.2 1.2.5 1.1.2-.3-.9-1.9-1.4-1.9-1.5 0-3.7 1.2-1.3 1.3-1.8.4-1.3-1.3.8-1.3.7-.1-.8.7-.9 1-1.7.5-1.7s0-.7 1-1.5c1.2-.9 1.4-1.5.7-1.5-.9 0-.7-1.1.8-3.6 1.2-1.9 1.7-3.3 1.2-3-.9.6.9-5.4 1.9-6.4.3-.3.7-1.6.8-3 .2-1.4.8-2.9 1.3-3.4.5-.6.9-1.8.9-2.8 0-2.3 2.1-6.8 3-6.3.4.2.7-.2.7-1s-.5-1.2-1-.8c-.5.3-.4-.4.2-1.4.6-1.1.7-2.3.4-2.7-.3-.3-.1-.6.5-.6s.9-.6.6-1.4c-.3-.8.5-2.4 1.8-3.6 1.3-1.3 1.7-1.9.9-1.5-1 .6-1.2.4-.5-.6.5-.8.7-2.2.6-3.1-.2-1.2.2-1.6 1.1-1.2 2 .7 2.9-2.3 1.6-4.8-.9-1.6-.8-1.9.2-1.3.8.6 1.1.4.7-.6-.3-.8-.2-2.3.2-3.4s.8 11.8.9 28.8c0 16.9.2 31 .2 31.5.1.4.1 1.1 0 1.7-.3 1.2-.2 28.9 0 30.1.1.5 0 1.3-.1 1.9-.1.5-.1 5.2 0 10.3.1 7.5-.2 9.2-1.2 8.6-1-.5-1.1-.4 0 .7.8.9 1.2 5.4 1.2 14.7 0 10.4-.3 13.2-1.2 12.6-.9-.5-.9-.3.1.9.7.9 1.1 2.8.9 4.2-.3 1.6.2 3.3 1.3 4.7 1.1 1.1 1.9 1.7 1.9 1.2 0-.6 3-.9 6.8-.9 4.3 0 6.7.4 6.7 1.2 0 .6.4 1.5.8 2 .5.4.8.3.7-.2-.5-2.2.1-3.6 1.1-3 .6.4.8 1.4.5 2.2-.4.8-.1 1.1.5.8.6-.4.8-1.3.5-2.1-.7-1.9.4-1.8 2.1.4.8.9 1.2 1.2.9.5-.4-.6-.2-1.4.4-1.8.5-.3 1-.1 1 .4 0 .6.5 1.1 1.1 1.1.5 0 .8-.4.5-.8-.3-.5.1-.9.9-.9 1.1 0 1.3.8.9 3.1-.3 1.7-.2 2.8.1 2.4.5-.5 1.1-2.3 1.4-4.8.1-.3 1-.6 2.1-.7 1.8-.2 2.5.8 2.1 3-.1.5.3.6.9.2.6-.3.8-1.1.4-1.6-.3-.6.2-1.7 1.2-2.4 1.1-.8 1.4-1.5.8-1.5-.6 0-1.1-.7-1.1-1.5s.5-1.5 1.1-1.5c.6 0 .4-.5-.4-1-1.3-.9-1.3-1 0-1 1.2 0 1.2-.2.2-.9-1.7-1.1-1.7-2.1 0-3.2.7-.5.8-.9.2-.9-.6 0-1.1-.7-1.1-1.5s.5-1.5 1.1-1.5c.7 0 .8-.3.1-.8-1.4-.9-1.4-4.5 0-5.4.6-.5.6-.8-.2-.8-.7 0-1.3-.5-1.3-1.1 0-.5.6-.7 1.3-.3.9.6.9.4-.1-.8-1-1.3-1-1.7 0-2 1-.4 1-.8-.1-2.1-1.1-1.4-1.1-1.7 0-1.7s1.1-.2-.1-1c-1.3-.9-1.3-1 0-1 1.2 0 1.2-.2.2-.9-.8-.4-1.4-1.2-1.4-1.6 0-.4.6-1.2 1.4-1.6 1-.7 1-.9 0-.9-.9 0-1-.5-.2-1.9.6-1.2.6-2.2.1-2.5-1-.7-.9-2.5.2-4.3.4-.6.3-1.5-.3-1.8-.8-.5-.8-1.1 0-2 .8-1 .8-1.5 0-2s-.6-1.4.7-2.8c1-1.1 1.3-1.7.6-1.4-1.5.9-2.7-.9-1.3-1.8.8-.5.8-1.1 0-2-.8-1-.8-1.5 0-2s.8-1 0-2c-.7-.8-.7-1.5-.1-1.9 1-.7 1-2.4-.2-4.3-.4-.6-.3-1.5.3-1.8.7-.4.7-1.2.2-1.8-1-1.4-1-2.7.1-4.4.4-.6.3-1.5-.3-1.8-.8-.5-.8-1.1 0-2 .8-1 .8-1.5 0-2s-.6-1.4.7-2.8c1-1.1 1.3-1.7.6-1.4-1.5.9-2.7-.9-1.3-1.8.8-.5.8-1.1 0-2-.8-1-.8-1.5 0-2s.8-1 0-2c-.7-.8-.7-1.5-.1-1.9 1-.7 1-2.4-.2-4.3-.4-.6-.3-1.5.3-1.8.7-.4.7-1.2.2-1.8-1-1.4-1-2.7.1-4.4.4-.6.3-1.5-.3-1.8-.8-.5-.8-1.1 0-2 .8-1 .8-1.5 0-2s-.6-1.4.7-2.8c1-1.1 1.3-1.7.6-1.4-1.5.9-2.7-.9-1.3-1.8.8-.5.8-1.1 0-2-.8-1-.8-1.5 0-2s.8-1 0-2c-.7-.8-.7-1.5-.1-1.9 1-.7 1-2.4-.2-4.3-.4-.6-.3-1.5.3-1.8.8-.5.7-1.2-.2-2.2-1.3-1.7-1.3-2 .3-4 .7-.7.6-1.4-.1-1.8-.8-.5-.8-1 0-2s.8-1.5 0-2-.6-1.4.7-2.8c1-1.1 1.3-1.7.6-1.4-1.5.9-2.7-.9-1.3-1.8.8-.5.8-1.1 0-2-.8-1-.8-1.5 0-2s.8-1 0-2c-.7-.8-.7-1.5-.1-1.9.7-.5.8-4.1.1-4.1-.1 0-.3-1-.4-2.3-.2-1.2.2-2.2.7-2.2.5 0 .4-.6-.2-1.4-.9-1-.9-1.6-.1-2.1s.8-1 0-2-.8-1.5 0-2 .8-1 0-2-.8-1.5 0-2 .8-1 0-2-.8-1.5 0-2 .8-1 0-2-.8-1.5 0-2 .8-1.1-.1-2.1c-.9-1.1-.8-1.4.2-1.4.9 0 1-.3.4-.8-.5-.4-1.1-2-1.2-3.5-.2-2.6 0-2.7 1.5-1.6 1.4 1.2 1.4 1-.1-.8-1.4-1.6-1.5-2.2-.5-2.5 1.1-.4 1-.8-.1-2.1-1.1-1.4-1.1-1.7 0-1.7s1.1-.2-.1-1c-1.3-.9-1.3-1 0-1 1.2 0 1.2-.2.2-.9-.8-.4-1.4-1.2-1.4-1.6 0-.4.6-1.2 1.4-1.6.7-.5.9-.9.3-.9-.5 0-1-2.2-1-4.9 0-3 .4-4.7 1-4.3.6.3.4-.1-.3-1-.9-1.2-1-1.8-.2-2.3.8-.5.8-1.1.1-1.9-.7-.9-.7-1.7.2-2.6 1-1 .9-1.1-.3-.5-1.3.8-1.3.6-.2-.7.9-1.2 1-1.8.2-2.3-.8-.5-.8-1.1-.1-1.9.6-.7.8-1.6.4-2-1.2-1.1-1.1-5.6.1-5.6.7 0 .8-.3.1-.8-.6-.4-1.1-1.9-1.2-3.5 0-1.5-.1-3.2-.2-3.7-.1-.6-6.7-1-17.5-1h-17.4l-1.2 3.2c-.7 1.8-1.2 3.9-1.1 4.5.1.7-.2 1.3-.7 1.3-.5 0-.9.6-1 1.2-.2 2.9-.9 5-1.8 5.6-.5.4-1 2-1.2 3.7-.2 1.6-.7 3.4-1.2 4-.4.5-1.1 2.4-1.5 4.2-.3 1.8-1.6 4.5-2.8 6-1.5 2-1.6 2.4-.4 1.4 1.6-1.3 1.7-1.2.7 1.5-.6 1.5-1.6 3.4-2.2 4.1-.6.7-.7 1.3-.3 1.3.4 0 0 1.2-1 2.6-.9 1.5-1.3 2.4-.7 2 .6-.3.5.4-.1 1.8-.7 1.3-1.6 2.2-2.2 1.8-.5-.3-.4.1.3 1 .9 1.1 1 1.8.2 2.3-.5.3-1 1.5-1 2.6 0 1-.4 1.9-1 1.9-.5 0-.9.3-.8.7.1.5-.7 3.5-1.7 6.8-1.1 3.3-1.8 6.3-1.7 6.7.1.5-.3.8-.8.8s-.9.3-.8.7c.4 1.4-6.6 21.3-7.5 21.3-.4 0-.5.5-.2 1 .4.6.1 1.7-.5 2.5-.7.8-1 1.5-.6 1.5.3 0-.4 2.4-1.5 5.2-1.2 2.9-2.3 6.2-2.5 7.2-.2 1.1-.7 2.2-1.1 2.5-.5.3-.9 1.7-1.1 3.1-.1 1.4-.6 2.6-1.1 2.8-.5.2-.7 1.2-.4 2.2.3 1.2 0 2-.6 2-.7 0-1 .4-.6.9.3.5.1 1.2-.5 1.6-.6.4-.8 1-.5 1.4.2.5-.2 1.7-1 2.7-1.4 1.8-1.4 1.8-1.6-.6-.1-1.4-.1-2.8 0-3.3 0-.4-.3-.7-.8-.7-.8 0-2-3.1-2-5.3 0-.4-.7-2-1.6-3.7-.8-1.6-1.7-3.7-1.8-4.7-.2-1-.7-2.5-1-3.3-1.1-2.8-4.7-12.5-4.7-12.8 0-.2.5 0 1.2.4s.2-.7-1.1-2.5c-1.9-2.6-2.1-3.4-1.1-4.7.7-.8 1-1.7.6-2.1-.3-.3-.6-.1-.6.5 0 2.6-1.9 1-2.5-2.1-.4-1.7-1.2-3.8-1.7-4.5-.6-.6-.8-1.2-.4-1.2s0-1.2-.8-2.8c-.8-1.5-1.6-3.8-1.7-5.2-.2-1.4-.7-2.7-1.1-3-.4-.3-.9-1.5-1.1-2.5-.4-1.9-.6-2.7-2.3-7-.4-1.1-.8-2.2-.8-2.5-.1-.3-.4-1-.7-1.5-.3-.6-.5-1.7-.4-2.5 0-.8-.3-1.8-.8-2.1-.4-.3-.9-1.6-1-2.7-.1-1.2-.4-2.2-.8-2.2s-1-1.5-1.4-3.3c-.4-1.7-.9-3.4-1-3.7-.1-.3-.7-1.8-1.3-3.3-.7-1.6-1-3.3-.6-3.8.3-.5.1-.9-.5-.9-.5 0-1.3-1.5-1.6-3.3-.4-1.7-1.1-3.7-1.6-4.3-.5-.6-1-1.9-1.2-3-.2-1-.7-2.8-1.1-3.9-.5-1.1-1.4-3.7-2.2-5.8-.8-2-1-3.7-.6-3.7s.2-.4-.3-.8c-.6-.4-1.5-2.1-2-3.7l-1-3-17.3-.3c-9.4-.1-17.3.1-17.3.5zM617 792c0 .5-.5 1-1.1 1-.5 0-.7-.5-.4-1 .3-.6.8-1 1.1-1 .2 0 .4.4.4 1zM689.7 683.7c-.3.5-.5 12.2-.6 26.2-.1 13.9-.4 25.7-.6 26.1-.3.5.1 1 .7 1.3.9.3.7 1-.7 2.2-1.1.9-1.4 1.4-.7 1 .8-.4 1.2.4 1.2 2.7.1 14.2 0 168.8-.1 169.5-.1.4-.1 1 0 1.3.1.3.3 3.6.4 7.5.1 5.2-.2 7.3-1.3 8.3-.8.8-.9 1.1-.2.7.8-.4 1.2.1 1.2 1.5 0 1.1.9 3.1 2.1 4.3 1.3 1.4 1.8 1.6 1.4.6-.8-2.2 3.5-2.1 5.3.1 1.1 1.3 1.1 1.3.7-.1-.4-1 0-1.6.9-1.6.8 0 1.3.4 1 .9-.3.4 0 .8.5.8.6 0 1.1-.4 1.1-.8 0-1 8.1-.9 9.8.1.6.5 1.2.4 1.2 0 0-.5 2.4-.8 5.3-.8 3.7 0 5.1.4 4.9 1.4-.1.7.2 1 .8.6.6-.3.8-1.1.5-1.6-.4-.5.2-.9 1.2-1 1 0 1.3-.3.6-.5-.8-.4-.9-1.3-.3-3 .7-1.6.6-2.4-.1-2.4-.8 0-.8-.4 0-1.4.8-1 .9-1.6.1-2.1-.7-.4-.7-1.2 0-2.6.8-1.4.7-1.9-.2-1.9-.9 0-.9-.3.2-1 .8-.5 1-1 .5-1-1.2 0-1.3-14-.1-15.8.3-.6.2-1.3-.4-1.7-.7-.4-.7-1.2 0-2.6.6-1 .7-1.9.3-1.9-.5 0-.8-1.4-.8-3-.1-1.6.3-3 .8-3 .4 0 .5-.5.1-1.1-1-1.6-1.1-14.9-.1-14.9.4 0 .5-.5.1-1.1-1-1.6-1.1-16.9-.2-17.5.4-.3.3-1.4-.3-2.6-.9-1.6-.8-1.9.3-1.2 1.1.6 1.1.5 0-.8-1-1.3-1.1-2.2-.3-3.7.7-1.3.8-2.2.1-2.6-.7-.4-.7-1.3 0-2.6.8-1.4.7-1.9-.1-1.9-.8 0-.7-.5.2-1.7 1.2-1.4 1.2-1.5.1-.9-1.1.7-1.2.4-.3-1.3.7-1.1.8-2.1.3-2.1-.7 0-.8-3.3-.2-5 .1-.3.2-.9.1-1.4-.1-.5.6-.3 1.5.5 1.2.9 1.5.9 1 .1-.4-.7-.2-1.2.6-1.3.7 0 2.3-.2 3.6-.3 1.2-.2 2.2.1 2.2.6 0 .4-.5.8-1.2.8-.6 0-.8.3-.5.7.4.3 1.5-.2 2.6-1.1 1.2-1.1 2.1-1.4 2.6-.7.3.6.1 1.1-.6 1.1s-.9.3-.6.6c.4.4 1.3.1 2.2-.6.8-.7 2.8-1 4.5-.8 1.6.2 3.1 0 3.4-.6.2-.8.8-.7 1.6.1.9.8 1.9.9 3.1.3 1.1-.7 2-.7 2.4 0 .3.5.1 1-.6 1s-.9.3-.6.6c.4.4 1.3.1 2.2-.6.8-.7 2.8-1 4.5-.8 1.6.2 3.1 0 3.4-.6.2-.8.8-.7 1.6.1.9.8 1.9.9 3.1.3 1.1-.7 2-.7 2.4 0 .3.5.1 1-.6 1s-.9.3-.6.6c.4.4 1.3.1 2.2-.6.8-.7 2.8-1 4.5-.8 1.6.2 3.2 0 3.5-.6.3-.6.3-.1.1 1.2-.2 1.2 0 2 .5 1.6.5-.3.9-1.2.9-2s.5-1.2 1.1-.9c.6.4.8 1.3.6 1.9-.3.7.1 1.3.8 1.3.7 0 1.1-.6.8-1.2-.2-.7.8-1.6 2.3-1.9 1.7-.5 2.3-1 1.7-1.4-.7-.4-.9-1.3-.4-2 .4-.8.6-2.9.4-4.9-.2-1.9.2-4.2.9-5.1 1-1.2 1-1.4.1-.8-1.2.6-1.9-1.9-1.4-4.7.7-3.7.7-6.7.1-6.7-.4 0-.7-.7-.7-1.5s.3-1.5.7-1.5c.9 0 0-5-.9-5.1-.3-.1-13.9-.3-30.1-.4-16.2-.1-30-.3-30.5-.4-1.2-.1-1.4-14.1-.2-14.1.5 0 .5-.5.1-1.1-1-1.6-1.1-16.9-.2-17.5.4-.3.3-1.4-.3-2.6-.9-1.6-.8-1.9.3-1.2 1.1.6 1.1.5 0-.8-1-1.3-1.1-2.2-.3-3.7.7-1.3.8-2.2.1-2.6-.7-.4-.7-1.3 0-2.6.6-1 .7-1.9.3-1.9-.5 0-.8-1.4-.8-3-.1-1.7.3-3 .7-3 .4 0 .4-1-.1-2.3-.9-2.6-.8-6.8.3-8.5.4-.7.3-1.2-.1-1.2-1.1 0-1.4-3.8-.4-4.5.5-.2.7-1.5.6-2.7-.3-2.2.1-2.3 5.1-2.3 2.9.1 5.6.4 6 .8 1.2 1.2 2.6.8 1.8-.6-.5-.7 0-.6 1.1.3 1.1.9 1.6 1 1.1.2s-.1-1.1 1.3-.9c1.1.2 2.4.6 2.7 1 1.2 1.2 2.6.8 1.8-.6-.5-.7 0-.6 1.1.3 1 .8 1.6 1 1.2.4-.4-.7.5-1.1 2.3-1.1 1.7 0 3 .5 3 1s.7.4 1.6-.4c1.3-1 1.7-1 2.5.2.7 1.2.9 1.2.9-.1 0-1.2.2-1.3.9-.1.7 1.1.9 1.1 1.4 0 .4-1.1.6-1 .6.1.1.9-.2 2-.6 2.6-.5.5.2-.2 1.4-1.6 2.2-2.4 2.3-2.4 3.8-.5.9 1.1 1.4 1.4 1 .7-.3-.6-.3-1.2.2-1.3.4 0 1.8-.2 3.1-.3 1.3-.2 2.7.4 3.3 1.3.9 1.4 1 1.4.5-.2-.3-.9-.1-1.7.4-1.7.6 0 1 .5 1 1.1 0 .5.5.7 1.2.3 1.7-1.1 6.8-1.2 7.4-.2.3.4 1 .8 1.5.8.6 0 .7-.6.3-1.3-.5-.7 0-.6 1.1.3 1 .8 1.6 1 1.2.3-.8-1.3 3-1.2 5.2.2.9.5 1.2.4.8-.2-.4-.6-.1-1.3.6-1.6.9-.3 1.2-2.2.9-6.2-.2-4 .1-6.1 1-6.6.8-.6.9-.9.2-.9-.8 0-1.1-3.1-1-10l.1-10h-53.7c-29.5 0-53.9.3-54.1.7z"/><path d="M731.4 719.4c.1.8.5 1.8.8 2.2.4.3.5-.1.4-1-.1-.8-.5-1.8-.8-2.2-.4-.3-.5.1-.4 1zM756.6 719.7c-.6 1.4-.5 1.5.5.6.7-.7 1-1.5.7-1.8-.3-.3-.9.2-1.2 1.2zM728.6 720.5c.4.8.8 1.5 1 1.5.2 0 .4-.7.4-1.5s-.4-1.5-1-1.5c-.5 0-.7.7-.4 1.5zM743.3 720.5c0 .8.4 1.2.9.9.4-.3.8-.9.8-1.5 0-.5-.4-.9-.8-.9-.5 0-.9.7-.9 1.5zM751 720c0 .5.5 1 1.1 1 .5 0 .7-.5.4-1-.3-.6-.8-1-1.1-1-.2 0-.4.4-.4 1zM772.9 720.3c.6.8.7 1.8.3 2.2-.4.5-.1.5.6.1 1-.6 1-1.1.1-2.2-.6-.8-1.4-1.4-1.6-1.4-.3 0 0 .6.6 1.3zM779 719.8c0 .5.7.9 1.5.9s1.2-.4.9-.9c-.3-.4-.9-.8-1.5-.8-.5 0-.9.4-.9.8zM783.5 720c-.3.5-.1 1 .4 1 .6 0 1.1-.5 1.1-1 0-.6-.2-1-.4-1-.3 0-.8.4-1.1 1zM790.5 720.1c-.3.4.2.6 1 .5 2.1-.3 2.8-1.3 1-1.3-.9 0-1.8.4-2 .8zM795.9 720.7c-1.3 1.6-1.2 1.7.4.4.9-.7 1.7-1.5 1.7-1.7 0-.8-.8-.3-2.1 1.3zM769.5 720.9c-.3.5-.2 1.2.3 1.5.5.3.9-.1.9-.9 0-1.7-.3-1.9-1.2-.6zM727.6 771.3c.3 1 .9 1.5 1.2 1.2.3-.3 0-1.1-.7-1.8-1-.9-1.1-.8-.5.6zM317.5 792c-.3.5-.1 1 .4 1 .6 0 1.1-.5 1.1-1 0-.6-.2-1-.4-1-.3 0-.8.4-1.1 1zM309 799c-.8.5-1.2 1.2-.9 1.5.4.3 1.2-.1 1.9-1 1.4-1.7 1.1-1.9-1-.5zM305.5 802c.3.5.8 1 1.1 1 .2 0 .4-.5.4-1 0-.6-.5-1-1.1-1-.5 0-.7.4-.4 1zM613.2 802.9c-1.1.7-1.1.9 0 1.4.9.3 1.5-.1 1.5-.9s-.1-1.4-.1-1.4c-.1 0-.7.4-1.4.9zM533.6 805.8c-.3.5.1.9.9.9s1.2-.4.9-.9c-.3-.4-.7-.8-.9-.8-.2 0-.6.4-.9.8zM609.3 818.9c0 1.1.5 1.8.9 1.5.4-.3.5-1.1.1-1.9-.7-2.1-1.2-1.9-1 .4zM606.9 823.7c-1.3 1.6-1.2 1.7.4.4 1.6-1.3 2.1-2.1 1.3-2.1-.2 0-1 .8-1.7 1.7zM747.7 829.3c-.3.8.1 1.4.8 1.4.7 0 1.1-.6.8-1.4-.3-.7-.6-1.3-.8-1.3-.2 0-.5.6-.8 1.3zM763.7 829.3c-.3.8.1 1.4.8 1.4.7 0 1.1-.6.8-1.4-.3-.7-.6-1.3-.8-1.3-.2 0-.5.6-.8 1.3zM751.3 831.4c0 1.5 2.2 1.5 3.4 0 .4-.5.4-.6-.1-.2-.5.4-1.4.3-2.1-.2-.8-.7-1.2-.5-1.2.4zM767.3 831.5c0 .8.4 1.5.9 1.5.4 0 .8-.4.8-.9 0-.6-.4-1.2-.8-1.5-.5-.3-.9.1-.9.9zM729 832.1c0 .5.5.7 1 .4.6-.3 1-.8 1-1.1 0-.2-.4-.4-1-.4-.5 0-1 .5-1 1.1zM731.8 832.9c-1.1 1.4-1.1 1.4.3.4.8-.7 2.5-1.1 3.7-.8 1.2.2 2.4.1 2.6-.3.9-1.5-5.4-.9-6.6.7zM771 832.4c.7.7 1.3.7 2 0 .6-.6.3-1-1-1s-1.6.4-1 1zM531.3 836.5c0 .8.4 1.2.9.9.5-.3.6-1 .3-1.5-.9-1.3-1.2-1.1-1.2.6zM545.7 839.9c-.4 1.7-.3 2.1.5 1.3.5-.5.8-1.6.6-2.3-.3-.8-.7-.3-1.1 1zM551.5 860c-.3.5-.1 1 .4 1 .6 0 1.1-.5 1.1-1 0-.6-.2-1-.4-1-.3 0-.8.4-1.1 1zM727.6 867.3c.3 1 .9 1.5 1.2 1.2.3-.3 0-1.1-.7-1.8-1-.9-1.1-.8-.5.6zM411 883.4c0 .8.4 1.7.9 2 .5.4.7-.3.4-1.4-.6-2.3-1.3-2.6-1.3-.6zM423 882.4c0 .2.8 1 1.8 1.7 1.5 1.3 1.6 1.2.3-.4s-2.1-2.1-2.1-1.3zM727.6 883.3c.3 1 .9 1.5 1.2 1.2.3-.3 0-1.1-.7-1.8-1-.9-1.1-.8-.5.6zM393.5 884c-.3.5-.1 1 .4 1 .6 0 1.1-.5 1.1-1 0-.6-.2-1-.4-1-.3 0-.8.4-1.1 1zM417.6 884.7c-.6 1.4-.5 1.5.5.6.7-.7 1-1.5.7-1.8-.3-.3-.9.2-1.2 1.2zM383.3 887.5c0 .8.4 1.2.9.9.5-.3.6-1 .3-1.5-.9-1.3-1.2-1.1-1.2.6zM378.6 891.8c-.3.5.1.9.9.9s1.2-.4.9-.9c-.3-.4-.7-.8-.9-.8-.2 0-.6.4-.9.8zM569 892.9c0 .6.4 1.3 1 1.6.6.3.7-.1.4-.9-.7-1.8-1.4-2.1-1.4-.7zM375.6 904.7c-.6 1.4-.5 1.5.5.6.7-.7 1-1.5.7-1.8-.3-.3-.9.2-1.2 1.2zM314.9 915.7c-1.3 1.6-1.2 1.7.4.4.9-.7 1.7-1.5 1.7-1.7 0-.8-.8-.3-2.1 1.3zM307 921.4c0 .2.9.6 2 .9 1.1.3 1.8.1 1.4-.4-.5-.9-3.4-1.3-3.4-.5zM303 924.4c0 .2.8 1 1.8 1.7 1.5 1.3 1.6 1.2.3-.4s-2.1-2.1-2.1-1.3zM297.6 931.3c.3 1 .9 1.5 1.2 1.2.3-.3 0-1.1-.7-1.8-1-.9-1.1-.8-.5.6zM283.5 934c-.3.5-.1 1 .4 1 .6 0 1.1-.5 1.1-1 0-.6-.2-1-.4-1-.3 0-.8.4-1.1 1zM290.2 935.6c1 1 2 1.6 2.2 1.3.3-.3-.5-1.1-1.7-1.8-2.1-1.3-2.1-1.2-.5.5zM278 936.1c0 .5.5.7 1 .4.6-.3 1-.8 1-1.1 0-.2-.4-.4-1-.4-.5 0-1 .5-1 1.1zM238.7 937.3c-.3.7.3 1.3 1.4 1.3 1.3 0 1.5-.3.7-1.3-.6-.7-1.2-1.3-1.3-1.3-.2 0-.5.6-.8 1.3zM254.7 937.3c-.3.7.3 1.3 1.4 1.3 1.3 0 1.5-.3.7-1.3-.6-.7-1.2-1.3-1.3-1.3-.2 0-.5.6-.8 1.3zM447.9 936.2c-.5 1.8-.6 3.8-.1 3.4.7-.8 1.2-3.6.6-3.6-.2 0-.4.1-.5.2zM452 936.9c0 .6.4 1.3 1 1.6.6.3.7-.1.4-.9-.7-1.8-1.4-2.1-1.4-.7zM497.5 937.1c-.4.6-.5 1.2-.2 1.5.2.3.7-.2 1-1.1.7-1.7.1-2-.8-.4zM708 936.9c0 .6.4 1.3 1 1.6.6.3.7-.1.4-.9-.7-1.8-1.4-2.1-1.4-.7zM214 938c-.8.5-1 1-.5 1 .6 0 1.7-.5 2.5-1s1.1-1 .5-1c-.5 0-1.7.5-2.5 1zM223 937.4c0 .2.7.7 1.6 1 .8.3 1.2.2.9-.4-.6-1-2.5-1.4-2.5-.6zM233.5 938c-.3.5-.1 1 .4 1 .6 0 1.1-.5 1.1-1 0-.6-.2-1-.4-1-.3 0-.8.4-1.1 1zM251.3 938.5c0 .8.4 1.2.9.9.5-.3.6-1 .3-1.5-.9-1.3-1.2-1.1-1.2.6zM259.6 937.8c-.3.4.4.9 1.5.9 2.3.2 2.5-.3.4-1-.8-.4-1.6-.3-1.9.1zM341.6 937.9c-.3.5.1 1.4.8 2 1 .9 1.6.9 2.1.1.4-.6.1-.9-.7-.8-.7.2-1.2-.3-1-1 .2-1.4-.4-1.6-1.2-.3zM361.5 938c-.3.5-.1 1 .4 1 .6 0 1.1-.5 1.1-1 0-.6-.2-1-.4-1-.3 0-.8.4-1.1 1zM505.7 937.7c-.9.8 1.2 3.3 2.7 3.3.6 0 .3-.5-.7-1.1-.9-.6-1.5-1.4-1.2-2 .7-1 .2-1.2-.8-.2zM705.5 938c-.3.5-.1 1 .4 1 .6 0 1.1-.5 1.1-1 0-.6-.2-1-.4-1-.3 0-.8.4-1.1 1zM714 937.4c0 .2.7.7 1.6 1 .8.3 1.2.2.9-.4-.6-1-2.5-1.4-2.5-.6zM217.9 938.2c-.5 1.8-.6 3.8-.1 3.4.7-.8 1.2-3.6.6-3.6-.2 0-.4.1-.5.2zM469 940c0 .5.5 1 1.1 1 .5 0 .7-.5.4-1-.3-.6-.8-1-1.1-1-.2 0-.4.4-.4 1zM639.6 940.7c-.6 1.4-.5 1.5.5.6.7-.7 1-1.5.7-1.8-.3-.3-.9.2-1.2 1.2zM695 939.4c0 .2.7.7 1.6 1 .8.3 1.2.2.9-.4-.6-1-2.5-1.4-2.5-.6zM713 939.4c0 .2.7.7 1.6 1 .8.3 1.2.2.9-.4-.6-1-2.5-1.4-2.5-.6zM672.5 964c-2.2 1-5.1 3.2-6.4 5.1-2.2 3-2.4 4.2-2.4 13.8 0 11.5 1.2 15.5 5.5 18.3 3.1 2 10.7 3.8 11.4 2.7.3-.5 1.3-.9 2.3-.9 2.3 0 6.8-4.8 7.6-8.1.6-2.3.3-2.5-2.2-2.5-1.7.1-3.9 1.2-5.5 2.8-3.1 3.2-6.6 3.6-9.7 1-2.9-2.4-3.9-6.4-3.5-15.2.3-6.6.6-7.8 2.9-9.8 3.7-3.2 7.8-2.9 10.8.8 1.6 1.9 3.5 3 5.1 3 3.2 0 3.4-2.1.5-6.1-3.9-5.5-10.4-7.4-16.4-4.9zM214.3 965c-5.2 3.2-6.6 7.1-6.6 18.7-.1 8.1.3 10.7 1.8 13 3 4.7 5.3 6.3 9.9 6.9 10.1 1.4 16.6-5.5 16-17.1-.1-2.2-.2-4.3-.3-4.6-.1-.4-10.8-.5-13.3 0-.3 0-.5.9-.3 1.8.2 1 .4 2.1.4 2.5.1.5 1.6.8 3.5.8 3.8 0 5 1.8 3.7 5.3-2.3 5.7-8.2 7.3-12.8 3.3-2.6-2.3-2.7-2.7-2.7-12.1 0-9.4.1-9.9 2.8-12.1 3.7-3.2 7.1-3 10.8.6 1.6 1.7 4 3 5.4 3 2.2 0 2.4-.3 1.8-2.8-1.9-7.9-12.6-11.8-20.1-7.2zM243.9 963.7c0 .5-.2 9.6-.2 20.4l-.2 19.6 12.5-.1 12.5-.1.3-2.7.3-2.7-9.8-.3-9.8-.3.2-5.3c0-3 .4-5.6.7-5.9.3-.3 3.9-.5 7.9-.4 6.7.2 7.5 0 8-1.9.7-2.8-.4-3.2-9.1-3.4l-7.7-.2v-10.9l9.8-.3 9.7-.3V963h-12.5c-6.9 0-12.5.3-12.6.7zM275.9 963.2c-.1.2-.3 9.4-.3 20.6l-.2 20.2 2.7-.2c1.6-.1 2.9-.9 3.1-1.8.2-.8.3-7 .3-13.8-.1-6.7.1-12.2.4-12.2.4 0 1.1.9 1.6 2 .6 1.1 4.3 7.4 8.4 14 6.8 11.1 7.6 12 10.2 11.8l2.9-.2V963h-6v13.5c0 7.4-.4 13.5-.8 13.5s-1.6-1.5-2.6-3.2c-3.7-6.4-13.1-21.3-14.3-22.6-1-1-5-1.7-5.4-1zM314.8 964.2c-.2.7-.4 9.8-.3 20.3v19l12.8.1 12.7.1v-5.6l-9.1.1c-5.2 0-9.4-.4-9.8-1-.3-.6-.6-3.2-.6-5.9l.1-4.8 8.2-.3 8.3-.3-.3-2.7c-.3-2.7-.3-2.7-8.3-2.6l-8 .1.2-5.1c0-2.8.2-5.4.2-5.9.1-.4 4.3-.7 9.4-.7h9.4l.1-3 .1-3h-12.4c-8.9 0-12.4.3-12.7 1.2zM346.5 983.2v20.1l2.8.4c1.5.2 2.7 0 2.8-.4.1-.4.2-4.4.3-8.8l.1-8h3.8c3.7 0 3.8.1 8 8.5 3.5 7.2 4.6 8.5 6.7 8.6 3.8.1 4.3-.5 2.5-3.2-.8-1.3-1.3-2.4-.9-2.4s.2-.6-.4-1.3c-1.9-2.4-5.2-8.8-5.2-10.2 0-.8.4-1.5 1-1.5.5 0 2.1-1.7 3.5-3.8 1.7-2.6 2.3-4.7 2.1-7.3-.8-8.2-5.4-10.9-18.3-10.9h-8.8v20.2zm19.8-13c2.1 2.3 2 6.5-.2 8.7-1.7 1.7-3.4 2.1-7.9 2.1h-5.9l.1-5.8c.1-3.1.5-6 .9-6.3 1.4-1 11.8 0 13 1.3zM389.6 968.7c-1 3.2-2.3 6.9-2.9 8.3-.5 1.4-2.9 7.9-5.2 14.6l-4.2 12.1 3.2.1c2.9.1 3.3-.2 4.6-4.5l1.4-4.6 7 .1c3.9 0 7.3.1 7.6.1.6.1 1.8 3.4 2.3 6.1.4 1.8 2 2.9 4.5 2.8l2.9-.1-3.5-9.6c-1.9-5.3-3.7-10.5-4-11.6-.2-1.1-.8-2.9-1.3-4-1.2-2.8-4.5-11.9-4.6-12.8-.1-.4-.2-1.2-.3-1.7 0-.6-1.4-1-2.9-1-2.6 0-3 .5-4.6 5.7zm6.5 20.3c-2 .3-4.6.4-5.8.2l-2.2-.4 2.5-7.2c1.4-3.9 2.8-7.8 3-8.6.3-.8 1.8 2.3 3.3 7l2.7 8.5-3.5.5zM416.7 964.7c-.3 1-.5 10.2-.5 20.4v18.5l12.4.1c8.8.1 12.4-.2 12.5-1 0-.7.2-2 .4-3s-.2-1.7-.8-1.6c-.7.1-5.1.1-9.9 0l-8.7-.1v-15.8-17.5c-.1-1.1-.9-1.7-2.5-1.7-1.5 0-2.6.7-2.9 1.7zM467.3 965c-5.5 3.3-6.5 5.9-6.6 16.3 0 13.9.1 14.1 3.6 18.1 2.8 3.3 3.9 3.8 8.7 4.2 4.3.4 6.2.1 8.7-1.5 3.2-2 7-7.8 5.8-8.9-1.7-1.8-4.9-1-7.6 1.9-2.5 2.7-3.4 3-6.2 2.5-5.6-1.1-6.9-3.4-7.2-12.8-.4-10.5 1.2-14.5 6-15.4 3.7-.7 6.9.7 8.5 3.6 1.4 2.7 7.6 2.9 6.5.2-.4-.9-.8-2.2-.9-2.8-1-6.2-12.7-9.5-19.3-5.4zM500.4 964c-2.6 1-7.4 6.6-7.5 8.8-.7 7.1-.5 20.1.3 22.3 3.7 10.5 18.9 11.9 24.9 2.3 2.8-4.6 3.1-21.1.4-26.7-3-6.4-11.3-9.5-18.1-6.7zm11.1 7.5c1.4 1.3 2.5 3.2 2.6 4.2.7 14.2.1 18.4-3.4 20.8-3.2 2.2-7 1.9-9.7-1.1-2.2-2.2-2.5-3.6-2.6-11.2-.2-4.7.2-9.4.7-10.3 2.9-5.5 8.4-6.5 12.4-2.4zM528.7 963.7c-.2.5-.3 9.6-.3 20.3l.1 19.5 2.6.3c3.4.4 3.5-.3 3.4-15.6-.1-6.7.1-12.2.4-12.2.3.1 4.3 6.3 8.9 13.9 7.6 12.7 8.5 13.8 11.2 13.9l3 .1-.1-20.5-.1-20.4H555c-2.4 0-2.9.5-3.2 2.7-.2 1.6-.1 4.4.2 6.3.3 1.9.3 5.1 0 7-.3 1.9-.3 5.7.1 8.3.7 6.1.4 5.8-10-11.1-6.8-10.9-8.7-13.2-10.6-13.2-1.3 0-2.6.3-2.8.7zM563.7 963.7c-.2.5-.3 1.7-.3 2.8.1 1.7.8 2 5.4 2 4.5 0 5.2.2 5.3 2 0 1.1.1 9.1.1 17.7l.1 15.8 3-.3 3-.2-.1-15.5c-.1-20.5-.4-19.6 5.8-19.4 4.9.1 5 0 5-2.8V963h-13.4c-7.4 0-13.7.3-13.9.7zM596.6 963.8c-.4.7-.8 10.7-.6 16.7 0 1.1 0 6.6.1 12.3 0 8.5.3 10.4 1.6 10.9 3.5 1.3 4.6-.9 4.5-9.3l-.1-8 3.7.1c3.6 0 3.8.2 7.9 8.5 3.8 7.5 4.6 8.5 7 8.6 1.6 0 3.1-.1 3.5-.3.3-.2-1.3-4.1-3.7-8.6l-4.4-8.3 3.4-3.3c1.9-1.8 3.6-4.2 3.6-5.4.1-1.2.2-2.9.3-3.7.3-2.5-2.2-6.7-5.1-8.8-2.2-1.5-4.7-2-12-2.1-5-.1-9.4.2-9.7.7zm19 6.3c2.8 2.1 2.9 5.7.3 8.5-1.9 2-3.2 2.4-8.1 2.4-4.8 0-5.8-.3-5.9-1.8-.2-2.8.3-9.6.6-10.2.7-1.1 11.3-.2 13.1 1.1zM637.6 973.7c-3.2 9.3-8.8 24.8-10.4 29.1-.3 1 .4 1.2 2.9 1 2.8-.4 3.5-1 4.6-4.5l1.4-4.1 6.5-.4c6.6-.3 9.6.2 9.5 1.5-.1.4.5 2.3 1.3 4.2 1.2 2.7 2.1 3.5 4.1 3.5 2.1 0 2.5-.4 2.1-2.3-.5-2.5-12.3-36.4-13.2-37.8-.3-.5-1.5-.9-2.8-.9-1.9 0-2.7 1.4-6 10.7zm9.2 6.9c1.3 4.2 2.1 7.9 1.8 8.1-.8.9-9.7.9-10.2.1-.3-.5-.1-1.4.4-2.1.6-.7 1-1.4 1-1.7-.2-1.4 3.4-12 4-12 .5 0 1.8 3.4 3 7.6zM692.9 963.5c-1 4.3-.3 5 4.4 5 2.7.1 5.1.6 5.5 1.2.4.6.7 8.5.6 17.5l-.1 16.4 2.9.2c2.1.2 2.8-.2 2.9-1.5.1-1 .2-8.6.3-16.8.2-8.3.3-15.5.4-16 .1-.6 2.1-1 4.5-1 5 .2 6.7-.8 6-3.5-.5-1.9-1.5-2-13.9-2-7.4 0-13.4.2-13.5.5zM725.7 963.7c-.3.5-.5 9.7-.5 20.6v19.7h2.9c1.6 0 2.9-.3 3-.8 0-.4.1-9.5.1-20.2l.1-19.5-2.5-.3c-1.5-.2-2.8.1-3.1.5zM740 979.2c-.1 25.7-.2 25.4 3.6 24.6 1.7-.3 1.9-1.7 2.4-14.2l.5-13.9 8.8 14.2c8.1 13 9.1 14.2 11.5 13.9l2.7-.3v-19.3c0-10.6-.3-19.8-.6-20.4-.3-.5-1.7-.8-3-.6-2.4.3-2.4.3-2.4 14 0 7.5-.2 13.5-.6 13.2-.4-.2-4.4-6.5-9-13.9-7.5-12.1-8.6-13.5-11.1-13.5H740v16.2zM786.7 963.7c-2.1.5-4.9 3.1-7.1 6.5-1.1 1.7-1.4 5.1-1.3 14.1l.2 11.8 4 3.8c10.1 9.3 23.5 2 23.5-12.9v-5.5h-6.7c-6.7 0-6.8.1-7.1 2.7-.3 2.6-.1 2.8 3.6 2.8 4.3 0 5.6.8 4.3 2.4-.5.6-1 1.5-1 2.1-.6 6.1-8.3 8.5-12.8 4-2.1-2.2-3.9-16-2.2-17 .4-.3.5-1.4.2-2.4-.6-2.4 3.7-7.1 6.6-7.1 3.1 0 7 2.1 7.6 4.2.8 2.4 6.5 2.6 6.5.1 0-2.8-4.2-8-7.5-9.2-3.2-1.1-7.4-1.3-10.8-.4z"/></svg>