<?xml version="1.0" encoding="iso-8859-1"?>
<!-- Generator: Adobe Illustrator 19.0.0, SVG Export Plug-In . SVG Version: 6.00 Build 0)  -->
<svg version="1.1" id="Layer_1" xmlns="http://www.w3.org/2000/svg" xmlns:xlink="http://www.w3.org/1999/xlink" x="0px" y="0px"
	 viewBox="0 0 512.001 512.001" style="enable-background:new 0 0 512.001 512.001;" xml:space="preserve">
<path style="fill:#BAC6CC;" d="M334.136,23.905c51.511,0,99.657,33.415,113.43,86.399c-44.182-17.019-110.125-20.109-144.809-10.839
	V75.56l0.036-51.655h0.024C320.171,23.905,332.782,23.905,334.136,23.905z"/>
<rect x="211.411" y="123.898" style="fill:#CFDCE5;" width="66.949" height="131.587"/>
<g>
	<rect x="211.411" y="117.91" style="fill:#BAC6CC;" width="66.949" height="28.205"/>
	<path style="fill:#BAC6CC;" d="M191.923,7.557V116.76l-3.423,0.635c-4.055-11.222-17.889-19.486-34.358-19.486
		c-16.366,0-30.134,8.168-34.269,19.294l-1.279-0.443V7.557l1.395-0.479c4.262,10.983,17.929,19.007,34.151,19.007
		c16.494,0,30.367-8.3,34.385-19.558L191.923,7.557z"/>
</g>
<g>
	<path style="fill:#CFDCE5;" d="M121.263,123.898H72.971c-4.715,0-8.537-3.822-8.537-8.537V8.537C64.434,3.822,68.257,0,72.971,0
		h48.292V123.898z"/>
	<path style="fill:#CFDCE5;" d="M296.608,0c4.09,0,7.404,3.318,7.399,7.406l-0.017,16.499l-0.036,51.655v23.905v17.033
		c0,4.086-3.313,7.399-7.399,7.399h-18.195v-0.012h-66.949v0.012h-16.83c-4.084,0-7.397-3.301-7.399-7.385
		c-0.017-22.056-0.011-87.071,0.004-109.127C187.189,3.301,190.5,0,194.585,0H296.608z"/>
</g>
<path style="fill:#FF6F52;" d="M289.14,261.21v206.537c0,24.756-20.432,44.828-45.319,44.242
	c-24.157-0.575-43.188-20.899-43.188-45.068V261.21c0-4.156,3.365-7.521,7.521-7.521h3.258h66.949h3.258
	C285.774,253.689,289.14,257.054,289.14,261.21z"/>
<path style="fill:#E25749;" d="M216.801,466.92V261.21c0-4.156,3.365-7.521,7.521-7.521h-12.911h-3.258
	c-4.156,0-7.521,3.365-7.521,7.521v205.71c0,24.169,19.031,44.493,43.188,45.068c3.145,0.074,6.218-0.183,9.19-0.737
	C232.267,507.361,216.801,488.707,216.801,466.92z"/>
<g>
</g>
<g>
</g>
<g>
</g>
<g>
</g>
<g>
</g>
<g>
</g>
<g>
</g>
<g>
</g>
<g>
</g>
<g>
</g>
<g>
</g>
<g>
</g>
<g>
</g>
<g>
</g>
<g>
</g>
</svg>
